<?xml version="1.0" encoding="UTF-8"?>
<svg xmlns="http://www.w3.org/2000/svg" xmlns:xlink="http://www.w3.org/1999/xlink" width="460px" height="122px" viewBox="0 0 460 122" version="1.1">
<g id="surface1">
<path style=" stroke:none;fill-rule:nonzero;fill:rgb(0%,0%,0%);fill-opacity:1;" d="M 70.917969 0.539062 C 69.742188 0.859375 67.019531 2.675781 65.742188 3.953125 C 62.652344 7.144531 61.523438 9.625 61.472656 13.261719 C 61.449219 14.539062 61.523438 16.035156 61.621094 16.574219 L 61.816406 17.582031 L 56.835938 18 C 51.34375 18.492188 49.96875 18.738281 45.871094 19.988281 L 43.050781 20.847656 L 40.722656 19.300781 C 35.914062 16.132812 31.839844 14.023438 27.597656 12.523438 C 24.308594 11.371094 18.25 9.945312 15.550781 9.726562 C 15.160156 9.675781 14.300781 9.578125 13.664062 9.453125 L 12.484375 9.28125 L 12.558594 11.515625 L 12.632812 13.777344 L 11.773438 13.972656 C 11.308594 14.097656 10.546875 14.269531 10.132812 14.367188 C 9.691406 14.464844 9.273438 14.613281 9.222656 14.710938 C 9.078125 14.957031 9.714844 17.558594 10.230469 18.738281 C 10.597656 19.597656 10.597656 19.792969 10.230469 21.4375 C 9.445312 24.875 9.25 26.695312 9.25 30.941406 C 9.273438 33.742188 9.394531 36.097656 9.664062 37.695312 C 10.082031 40.199219 11.578125 46.214844 12.070312 47.273438 C 12.265625 47.738281 12.242188 47.984375 11.824219 48.550781 C 10.621094 50.242188 7.238281 57.511719 5.027344 63.113281 C 3.3125 67.507812 0 77.503906 0 78.3125 C 0 78.65625 0.980469 76.027344 2.183594 72.445312 C 3.386719 68.859375 4.90625 64.5625 5.59375 62.867188 C 7.164062 58.960938 10.769531 50.980469 11.652344 49.484375 L 12.3125 48.304688 L 13.296875 50.613281 C 13.8125 51.890625 14.375 53.191406 14.523438 53.535156 C 14.667969 53.878906 14.816406 54.027344 14.890625 53.855469 C 14.9375 53.707031 14.324219 51.792969 13.492188 49.605469 C 11.1875 43.441406 10.058594 38.332031 9.691406 32.488281 C 9.492188 29.566406 9.933594 23.992188 10.546875 21.464844 C 10.964844 19.695312 10.964844 19.671875 10.402344 17.925781 C 9.492188 15.152344 9.519531 14.929688 10.671875 14.683594 C 11.210938 14.585938 11.945312 14.367188 12.3125 14.21875 C 12.976562 13.949219 13 13.898438 12.925781 12.03125 C 12.902344 10.976562 12.953125 10.042969 13.050781 9.945312 C 13.148438 9.847656 14.570312 10.019531 16.214844 10.289062 C 26.050781 12.007812 32.378906 14.441406 40.253906 19.472656 C 42.09375 20.652344 43.664062 21.609375 43.761719 21.609375 C 43.835938 21.609375 43.835938 21.464844 43.761719 21.292969 C 43.6875 21.046875 44.425781 20.773438 46.535156 20.285156 C 51.488281 19.128906 53.207031 18.910156 57.769531 18.738281 L 62.183594 18.589844 L 63.09375 20.0625 C 64.566406 22.445312 69.324219 26.59375 70.917969 26.890625 C 71.433594 26.988281 71.582031 26.839844 71.972656 25.835938 C 72.21875 25.195312 73.003906 23.648438 73.691406 22.394531 L 74.941406 20.113281 L 75.875 20.257812 C 76.585938 20.359375 77.027344 20.257812 77.589844 19.914062 C 81.097656 17.804688 96.847656 11.933594 104.304688 9.996094 C 107.960938 9.035156 107.789062 8.9375 107.664062 11.886719 C 107.617188 13.0625 107.691406 13.824219 107.886719 14.070312 C 108.058594 14.269531 108.84375 14.710938 109.652344 15.078125 L 111.101562 15.742188 L 110.78125 16.773438 C 110.609375 17.335938 110.316406 18.195312 110.144531 18.6875 C 109.875 19.449219 109.921875 19.988281 110.511719 23.109375 C 111.050781 25.980469 111.199219 27.554688 111.296875 31.628906 C 111.394531 34.945312 111.320312 37.128906 111.148438 38.136719 C 110.730469 40.296875 109.601562 43.957031 109.382812 43.957031 C 109.261719 43.957031 108.402344 42.410156 107.445312 40.542969 C 105.777344 37.179688 105.75 37.128906 106.265625 36.785156 C 106.976562 36.320312 106.707031 35.902344 104.132812 33.421875 L 102 31.359375 L 102.734375 30.792969 C 104.304688 29.542969 108.058594 23.84375 107.589844 23.402344 C 107.394531 23.207031 103.175781 22.617188 102 22.59375 C 101.484375 22.59375 101.066406 22.519531 101.066406 22.445312 C 101.066406 22.371094 101.460938 21.636719 101.949219 20.800781 C 102.957031 19.082031 104.304688 15.9375 104.109375 15.742188 C 103.8125 15.421875 97.191406 15.691406 95.914062 16.058594 C 95.179688 16.257812 94.910156 16.378906 95.300781 16.304688 C 95.71875 16.230469 97.78125 16.109375 99.9375 16.035156 L 103.8125 15.914062 L 103.640625 16.476562 C 103.371094 17.386719 101.925781 20.382812 101.1875 21.535156 L 100.550781 22.566406 L 101.117188 22.691406 C 101.433594 22.765625 102.785156 22.9375 104.132812 23.109375 C 107.738281 23.550781 107.617188 23.378906 106.195312 25.6875 C 105.53125 26.792969 104.28125 28.460938 103.421875 29.371094 L 101.828125 31.066406 L 100.035156 29.246094 C 98.613281 27.796875 97.804688 27.234375 96.039062 26.375 C 92.261719 24.582031 87.722656 23.355469 84.777344 23.328125 L 83.773438 23.304688 L 85.882812 21.265625 C 88.140625 19.054688 89.488281 18.246094 92.601562 17.164062 C 93.683594 16.773438 94.394531 16.476562 94.171875 16.453125 C 93.953125 16.453125 93.144531 16.675781 92.359375 16.945312 C 91.574219 17.214844 90.863281 17.4375 90.789062 17.4375 C 90.296875 17.410156 94.664062 14.980469 98.269531 13.234375 C 100.625 12.132812 102.488281 11.171875 102.441406 11.125 C 102.292969 10.953125 94.171875 14.710938 92.285156 15.816406 C 89.585938 17.386719 88.015625 18.613281 85.488281 21.09375 L 83.28125 23.253906 L 81.148438 23.527344 C 78.03125 23.96875 73.59375 25.515625 72.832031 26.421875 C 72.683594 26.621094 73.371094 26.398438 74.351562 25.90625 C 76.929688 24.703125 79.652344 24.042969 82.839844 23.894531 C 85.292969 23.769531 85.785156 23.820312 87.132812 24.3125 C 91.058594 25.710938 98.246094 30.105469 101.238281 32.90625 C 101.875 33.519531 102.636719 34.160156 102.90625 34.355469 C 103.175781 34.527344 102.585938 33.890625 101.582031 32.929688 C 98.664062 30.105469 93.78125 26.914062 89.367188 24.925781 C 87.820312 24.238281 87.597656 24.089844 88.1875 24.089844 C 89.316406 24.089844 94.441406 25.859375 96.257812 26.867188 C 100.011719 28.976562 103.691406 33.617188 106.855469 40.273438 C 107.46875 41.550781 108.253906 43.195312 108.621094 43.910156 C 109.160156 45.011719 109.210938 45.308594 108.964844 45.699219 C 108.671875 46.167969 108.671875 46.167969 109.40625 45.800781 C 110.167969 45.40625 110.414062 45.085938 109.773438 45.332031 C 109.210938 45.554688 109.332031 45.011719 110.144531 43.589844 C 110.535156 42.902344 110.804688 42.261719 110.757812 42.1875 C 110.683594 42.117188 110.828125 41.230469 111.101562 40.25 C 112.769531 34.109375 112.71875 28.535156 110.902344 22.078125 C 110.214844 19.621094 110.191406 19.546875 110.632812 18.933594 C 111.050781 18.34375 111.984375 15.496094 111.8125 15.347656 C 111.761719 15.324219 110.953125 14.929688 109.972656 14.488281 L 108.203125 13.679688 L 108.351562 12.15625 C 108.476562 10.730469 108.15625 9.011719 107.714844 8.742188 C 107.320312 8.496094 97.410156 11.199219 93.4375 12.621094 C 87.304688 14.808594 80.804688 17.65625 77.613281 19.546875 C 76.953125 19.914062 76.730469 19.941406 76.167969 19.695312 L 75.53125 19.398438 L 76.019531 18.710938 C 79.0625 14.613281 85.390625 10.042969 90.617188 8.203125 L 92.578125 7.515625 L 91.71875 7.144531 C 91.277344 6.949219 89.953125 6.777344 88.800781 6.730469 L 86.714844 6.65625 L 88.457031 6.851562 C 89.414062 6.972656 90.566406 7.144531 91.007812 7.246094 L 91.820312 7.417969 L 90.617188 7.859375 C 85.195312 9.773438 78.328125 14.929688 74.84375 19.71875 C 73.765625 21.191406 71.851562 24.703125 71.53125 25.785156 C 71.359375 26.375 71.3125 26.324219 70.941406 25.292969 C 70.671875 24.507812 70.550781 23.28125 70.550781 21.121094 C 70.550781 18.566406 70.625 17.78125 71.089844 16.355469 C 72.488281 12.132812 74.15625 10.363281 78.71875 8.300781 C 81.097656 7.21875 80.289062 7.269531 77.640625 8.375 C 75.503906 9.257812 73.25 11.222656 72.046875 13.261719 C 71.066406 14.90625 70.402344 16.625 70.402344 17.558594 C 70.402344 18.097656 70.304688 18.171875 69.542969 18.171875 C 68.417969 18.171875 68.246094 17.78125 68.046875 14.5625 C 67.730469 9.28125 69.03125 3.929688 71.285156 1.253906 C 71.628906 0.808594 71.898438 0.441406 71.851562 0.394531 C 71.800781 0.34375 71.359375 0.417969 70.917969 0.539062 Z M 69.863281 2.628906 C 68.023438 6.015625 67.140625 13.53125 67.949219 18.539062 C 68.195312 20.085938 69.324219 24.386719 69.8125 25.664062 C 70.085938 26.351562 68.34375 24.976562 65.964844 22.59375 C 62.921875 19.570312 61.375 16.160156 61.71875 13.136719 C 62.011719 10.242188 63.535156 6.972656 65.59375 4.691406 C 66.578125 3.632812 70.132812 1.128906 70.378906 1.351562 C 70.425781 1.425781 70.207031 1.988281 69.863281 2.628906 Z M 70.035156 21.488281 C 70.085938 22.839844 70.28125 24.484375 70.5 25.171875 C 70.992188 26.765625 70.84375 26.839844 70.183594 25.320312 C 69.570312 23.894531 69.003906 21.757812 68.785156 20.085938 C 68.613281 18.882812 68.613281 18.859375 69.273438 18.957031 L 69.9375 19.03125 Z M 106.195312 36.613281 C 105.996094 36.738281 105.777344 36.835938 105.679688 36.835938 C 105.605469 36.835938 105.015625 35.976562 104.402344 34.921875 L 103.273438 33.03125 L 104.917969 34.699219 C 106.195312 36.023438 106.488281 36.417969 106.195312 36.613281 Z M 106.195312 36.613281 "/>
<path style=" stroke:none;fill-rule:nonzero;fill:rgb(0%,0%,0%);fill-opacity:1;" d="M 82.054688 7 L 80.828125 7.316406 L 82.179688 7.195312 C 82.914062 7.121094 84.019531 6.972656 84.632812 6.875 L 85.734375 6.679688 L 84.507812 6.679688 C 83.847656 6.679688 82.742188 6.828125 82.054688 7 Z M 82.054688 7 "/>
<path style=" stroke:none;fill-rule:nonzero;fill:rgb(0%,0%,0%);fill-opacity:1;" d="M 16.191406 11 C 16.191406 11.101562 16.925781 11.445312 17.832031 11.761719 C 19.429688 12.328125 25.757812 15.371094 25.757812 15.542969 C 25.757812 15.59375 24.875 15.398438 23.792969 15.078125 C 21.511719 14.414062 19.378906 14.097656 19.378906 14.390625 C 19.378906 14.511719 19.601562 15.570312 19.84375 16.722656 C 20.359375 18.957031 21.367188 21.4375 22.421875 22.984375 C 23.230469 24.164062 23.230469 24.3125 22.398438 24.3125 C 21.710938 24.3125 15.894531 25.097656 15.722656 25.195312 C 15.675781 25.246094 16.042969 25.933594 16.558594 26.742188 C 17.613281 28.484375 19.527344 30.648438 21.171875 31.949219 L 22.347656 32.882812 L 19.035156 35.042969 C 17.21875 36.222656 15.722656 37.300781 15.699219 37.425781 C 15.675781 37.917969 17.6875 39.488281 19.429688 40.347656 C 21.292969 41.28125 24.1875 42.066406 24.652344 41.773438 C 24.800781 41.699219 24.359375 41.550781 23.671875 41.476562 C 21.171875 41.132812 18.519531 39.929688 16.878906 38.359375 L 15.96875 37.5 L 19.207031 35.3125 C 21 34.085938 22.542969 33.03125 22.640625 32.929688 C 22.738281 32.832031 22.421875 32.464844 21.90625 32.121094 C 20.726562 31.308594 19.28125 29.933594 18.03125 28.363281 C 16.535156 26.546875 16.09375 25.761719 16.410156 25.5625 C 16.558594 25.464844 18.078125 25.195312 19.796875 24.949219 C 24.164062 24.335938 23.917969 24.484375 22.984375 23.253906 C 21.832031 21.734375 20.65625 19.007812 20.140625 16.601562 C 19.871094 15.445312 19.722656 14.488281 19.773438 14.488281 C 20.484375 14.488281 25.09375 15.691406 26.589844 16.257812 C 30.367188 17.707031 45.871094 28.707031 45.871094 29.933594 C 45.871094 30.15625 45.332031 31.039062 44.671875 31.925781 C 43.394531 33.617188 36.894531 40.347656 34.589844 42.386719 C 32.992188 43.785156 33.605469 43.367188 35.691406 41.671875 C 37.777344 39.953125 44.742188 32.832031 45.628906 31.480469 C 46.019531 30.867188 46.363281 30.132812 46.363281 29.863281 C 46.363281 29.542969 45.726562 28.832031 44.644531 27.898438 C 40.917969 24.753906 31.472656 18.148438 26.835938 15.519531 C 23.523438 13.605469 16.191406 10.511719 16.191406 11 Z M 16.191406 11 "/>
<path style=" stroke:none;fill-rule:nonzero;fill:rgb(0%,0%,0%);fill-opacity:1;" d="M 73.664062 28.757812 C 73.222656 28.878906 72.855469 29.027344 72.855469 29.050781 C 72.855469 29.074219 74.207031 29.101562 75.847656 29.101562 C 78.769531 29.101562 78.890625 29.125 79.847656 29.789062 C 80.386719 30.179688 80.609375 30.425781 80.339844 30.351562 C 79.0625 30.007812 76.683594 29.738281 76.363281 29.933594 C 76.117188 30.058594 76.683594 30.179688 77.8125 30.277344 C 79.996094 30.476562 81.738281 30.992188 82.960938 31.800781 C 83.476562 32.144531 83.894531 32.464844 83.894531 32.515625 C 83.894531 32.5625 82.9375 32.339844 81.761719 32.023438 C 80.558594 31.703125 79.210938 31.433594 78.742188 31.457031 C 78.128906 31.457031 78.5 31.605469 79.96875 31.949219 C 84.410156 32.957031 85.980469 33.742188 89.414062 36.738281 L 90.148438 37.375 L 89.242188 36.835938 C 87.5 35.828125 88.3125 36.566406 91.082031 38.53125 C 97.117188 42.804688 100.527344 46.4375 102.171875 50.34375 C 102.785156 51.839844 102.929688 51.964844 103.273438 51.324219 C 103.445312 51.03125 103.46875 50.832031 103.347656 50.90625 C 103.199219 51.003906 102.832031 50.488281 102.515625 49.800781 C 101.605469 47.863281 100.332031 45.972656 98.710938 44.226562 C 97.167969 42.53125 97.363281 42.605469 100.332031 44.71875 C 101.214844 45.355469 102.785156 46.386719 103.839844 47.027344 C 105.039062 47.765625 105.679688 48.28125 105.554688 48.453125 C 105.457031 48.625 105.582031 48.597656 105.800781 48.402344 C 106.023438 48.230469 106.21875 48.035156 106.21875 47.984375 C 106.21875 47.960938 105.53125 47.519531 104.695312 47.003906 C 101.359375 45.011719 95.351562 40.742188 91.351562 37.523438 C 85.636719 32.957031 79.945312 29.148438 78.203125 28.757812 C 76.902344 28.4375 74.71875 28.460938 73.664062 28.757812 Z M 73.664062 28.757812 "/>
<path style=" stroke:none;fill-rule:nonzero;fill:rgb(0%,0%,0%);fill-opacity:1;" d="M 77.074219 38.1875 C 77.125 38.332031 77.785156 39.535156 78.546875 40.914062 C 80.339844 44.082031 81.320312 46.558594 82.078125 49.828125 C 82.863281 53.140625 83.085938 58.152344 82.691406 62.523438 C 82.324219 66.523438 82.226562 66.871094 81.710938 66.648438 C 81.492188 66.550781 80.851562 66.425781 80.289062 66.351562 C 79.136719 66.253906 77.664062 66.941406 76.558594 68.121094 C 75.75 68.980469 76.070312 68.933594 77.050781 68.023438 C 78.570312 66.648438 80.019531 66.253906 81.320312 66.84375 C 82.078125 67.1875 82.105469 67.65625 81.464844 70.773438 C 80.828125 73.84375 79.921875 76.25 79.382812 76.25 C 79.113281 76.25 78.671875 75.734375 78.203125 74.898438 C 76.535156 71.878906 74.082031 65.394531 74.082031 63.945312 C 74.082031 63.601562 73.984375 63.40625 73.835938 63.480469 C 73.714844 63.554688 73.59375 63.921875 73.59375 64.289062 C 73.59375 66.328125 71.949219 70.207031 70.035156 72.6875 C 68.515625 74.679688 65.078125 77.847656 64.636719 77.699219 C 64.441406 77.601562 64.269531 77.402344 64.269531 77.207031 C 64.269531 77.011719 64.125 76.863281 63.976562 76.863281 C 63.214844 76.839844 61.179688 74.089844 59.632812 71.019531 C 58.53125 68.808594 58.53125 68.710938 59.976562 68.636719 C 60.664062 68.613281 61.941406 68.488281 62.824219 68.390625 C 64.074219 68.246094 64.589844 68.292969 65.203125 68.613281 C 66.304688 69.175781 66.503906 69.078125 65.523438 68.464844 C 64.589844 67.875 62.699219 67.777344 61.105469 68.269531 C 60.640625 68.390625 59.855469 68.441406 59.363281 68.367188 C 58.480469 68.21875 58.457031 68.195312 58.039062 66.453125 C 57.328125 63.359375 56.863281 59.160156 56.863281 55.5 C 56.886719 51.691406 57.328125 48.722656 58.921875 42.289062 C 59.316406 40.617188 59.609375 39.21875 59.535156 39.144531 C 59.289062 38.898438 57.304688 46.167969 56.691406 49.605469 C 55.710938 55.082031 53.527344 59.675781 49.035156 65.8125 C 48.054688 67.164062 47.613281 67.558594 46.140625 68.269531 C 45.1875 68.710938 44.402344 69.203125 44.402344 69.300781 C 44.402344 69.421875 44.914062 69.226562 45.527344 68.882812 C 47.6875 67.679688 47.367188 68.171875 43.003906 72.738281 C 41.507812 74.308594 41.40625 74.382812 40.15625 74.410156 C 38.464844 74.480469 38.144531 74.382812 39.371094 74.164062 L 40.351562 73.992188 L 39.347656 73.941406 L 38.316406 73.917969 L 37.679688 72.125 C 35.175781 65.125 34.957031 59.132812 37.015625 53.65625 C 37.261719 53.019531 37.238281 52.96875 36.941406 53.363281 C 36.773438 53.609375 36.355469 54.589844 36.058594 55.574219 C 35.003906 58.886719 33.777344 60.707031 30.125 64.21875 C 27.425781 66.871094 24.039062 69.816406 23.917969 69.691406 C 23.671875 69.449219 25.316406 58.296875 26.027344 55.449219 C 26.933594 51.765625 28.773438 47.519531 29.804688 46.660156 C 30 46.488281 30.171875 46.242188 30.171875 46.09375 C 30.171875 45.457031 29.09375 46.929688 27.988281 49.089844 C 26.492188 52.011719 25.683594 54.394531 25.019531 57.710938 C 24.507812 60.289062 23.035156 70.773438 23.15625 70.921875 C 23.207031 70.945312 24.113281 70.28125 25.191406 69.421875 C 28.1875 66.992188 32.945312 62.179688 34.121094 60.386719 L 35.203125 58.765625 L 35.226562 61.859375 C 35.226562 64.117188 35.375 65.617188 35.789062 67.484375 C 36.5 70.675781 36.453125 73.746094 35.691406 74.308594 C 35.300781 74.605469 35.273438 74.652344 35.644531 74.652344 C 35.863281 74.652344 36.058594 74.753906 36.058594 74.875 C 36.058594 75.097656 35.691406 75.195312 33.804688 75.539062 C 32.355469 75.785156 32.96875 76.199219 34.488281 76.027344 C 35.570312 75.90625 35.816406 75.957031 35.816406 76.25 C 35.816406 76.496094 35.546875 76.617188 35.03125 76.644531 C 34.589844 76.667969 33.949219 76.765625 33.605469 76.863281 C 33.140625 77.011719 33.335938 77.058594 34.417969 77.085938 C 35.765625 77.109375 35.839844 77.132812 35.765625 77.648438 C 35.691406 78.140625 35.445312 78.265625 34.046875 78.558594 C 31.914062 79 31.867188 79.417969 33.976562 79.195312 C 35.472656 79.023438 35.570312 79.050781 35.570312 79.515625 C 35.570312 79.933594 35.375 80.054688 34.464844 80.203125 C 33.851562 80.277344 33.363281 80.472656 33.363281 80.597656 C 33.363281 80.71875 33.828125 80.742188 34.464844 80.644531 C 35.421875 80.523438 35.546875 80.546875 35.421875 80.890625 C 35.324219 81.136719 34.832031 81.332031 34.074219 81.429688 C 32.40625 81.652344 32.355469 81.945312 33.976562 82.144531 C 35.519531 82.339844 35.714844 82.636719 34.464844 82.855469 C 33.410156 83.050781 33.335938 83.496094 34.34375 83.496094 C 35.003906 83.496094 35.078125 83.566406 35.078125 84.230469 C 35.078125 84.894531 35.003906 84.96875 34.292969 84.992188 C 33.117188 85.015625 32.601562 85.261719 32.847656 85.679688 C 32.992188 85.925781 33.335938 85.976562 33.949219 85.875 C 34.710938 85.753906 34.832031 85.804688 34.832031 86.195312 C 34.832031 86.589844 33.902344 87.375 33.679688 87.226562 C 33.460938 87.078125 33.117188 87.226562 33.117188 87.421875 C 33.117188 87.546875 33.460938 87.667969 33.851562 87.667969 C 34.636719 87.667969 34.761719 87.890625 34.292969 88.355469 C 34.074219 88.578125 34.074219 88.652344 34.320312 88.652344 C 34.589844 88.652344 34.613281 88.96875 34.515625 89.976562 C 34.441406 90.691406 34.269531 91.5 34.121094 91.746094 C 33.976562 92.015625 33.582031 93.367188 33.238281 94.789062 C 32.378906 98.253906 30.933594 103.632812 30.6875 104.246094 C 30.566406 104.515625 30.097656 106.011719 29.65625 107.558594 C 29.214844 109.109375 28.601562 111.023438 28.308594 111.832031 L 27.792969 113.28125 L 26.886719 111.832031 C 25.90625 110.285156 22.789062 104.023438 22.199219 102.476562 C 22.027344 101.960938 21.511719 100.707031 21.097656 99.703125 C 20.238281 97.640625 19.109375 93.515625 18.496094 90.246094 C 18.226562 88.726562 18.054688 86.074219 17.980469 81.773438 C 17.808594 72.6875 18.175781 70.207031 21.023438 61.589844 C 22.863281 56.0625 22.839844 56.113281 22.542969 56.40625 C 22.125 56.824219 18.839844 66.402344 18.273438 68.933594 C 16.828125 75.339844 16.828125 85.1875 18.300781 92.753906 L 18.691406 94.765625 L 17.589844 96.4375 C 16.019531 98.792969 12.65625 102.109375 10.203125 103.730469 C 9.050781 104.492188 8.070312 105.105469 8.023438 105.105469 C 7.949219 105.105469 7.851562 104.859375 7.777344 104.5625 C 7.726562 104.246094 7.261719 102.453125 6.796875 100.5625 C 5.46875 95.429688 5.078125 89.363281 5.8125 85.238281 C 5.910156 84.699219 5.863281 84.453125 5.691406 84.574219 C 5.570312 84.648438 5.371094 85.261719 5.273438 85.925781 C 5.175781 86.6875 4.90625 87.300781 4.585938 87.621094 C 3.949219 88.183594 2.035156 89.09375 0.980469 89.3125 C 0.5625 89.386719 0.171875 89.558594 0.0742188 89.707031 C -0.34375 90.394531 2.871094 89.242188 4.464844 88.109375 L 5.125 87.667969 L 5.125 91.523438 C 5.125 94.742188 5.226562 95.894531 5.738281 98.230469 C 6.351562 101.078125 7.578125 105.890625 7.75 106.0625 C 7.800781 106.113281 8.023438 105.964844 8.242188 105.742188 C 8.464844 105.496094 9.445312 104.785156 10.402344 104.121094 C 11.382812 103.484375 12.78125 102.378906 13.515625 101.714844 L 14.890625 100.464844 L 15.160156 102.550781 C 15.453125 104.859375 16.804688 110.65625 17.171875 111.242188 C 17.492188 111.734375 18.914062 111.023438 21.636719 108.9375 L 23.792969 107.316406 L 24.679688 109.109375 C 25.609375 110.949219 27.621094 114.191406 27.84375 114.191406 C 28.136719 114.191406 28.972656 112.101562 29.828125 109.179688 C 30.613281 106.457031 30.785156 106.085938 30.980469 106.601562 C 32.453125 110.359375 34.367188 113.550781 36.773438 116.277344 L 37.554688 117.164062 L 38.046875 116.597656 C 38.953125 115.542969 40.671875 113.085938 42.019531 110.925781 L 43.371094 108.789062 L 44.03125 110.800781 C 44.402344 111.929688 45.160156 113.773438 45.699219 114.902344 L 46.65625 116.992188 L 46.09375 117.433594 C 44.84375 118.390625 41.949219 121.558594 41.949219 121.949219 C 41.949219 122 51.046875 122.050781 62.183594 122.050781 C 81.394531 122.050781 82.421875 122.023438 82.203125 121.605469 C 81.710938 120.675781 78.179688 116.867188 76.976562 116.007812 C 76.289062 115.492188 75.164062 114.878906 74.476562 114.632812 C 73.347656 114.265625 73.222656 114.140625 73.273438 113.550781 C 73.394531 112.128906 73.519531 112.128906 75.015625 113.40625 C 75.773438 114.066406 76.976562 115 77.640625 115.492188 C 79.136719 116.546875 83.917969 119.101562 84.433594 119.101562 C 84.703125 119.101562 85.074219 117.726562 85.957031 113.257812 C 86.59375 110.066406 87.15625 107.386719 87.207031 107.363281 C 87.253906 107.316406 87.453125 107.585938 87.671875 107.976562 C 88.800781 110.1875 94.101562 116.402344 94.859375 116.402344 C 95.328125 116.402344 98.171875 110.507812 99.105469 107.609375 C 100.0625 104.6875 100.675781 101.152344 100.453125 99.777344 C 100.378906 99.1875 100.355469 98.71875 100.402344 98.71875 C 100.476562 98.71875 100.992188 99.457031 101.582031 100.363281 C 102.957031 102.601562 105.410156 105.523438 107.003906 106.847656 C 108.449219 108.074219 112.324219 111 112.496094 111 C 112.546875 111 112.597656 110.726562 112.597656 110.382812 C 112.597656 110.039062 112.769531 108.8125 112.964844 107.632812 C 113.382812 105.105469 114.164062 97.417969 114.582031 91.476562 C 114.753906 89.167969 114.949219 87.152344 115.050781 86.980469 C 115.148438 86.761719 115.441406 86.980469 115.90625 87.667969 C 116.667969 88.773438 121.328125 93.316406 121.695312 93.316406 C 122.238281 93.316406 121.820312 92.753906 120.398438 91.574219 C 117.917969 89.535156 117.257812 88.871094 116.128906 87.300781 L 115.050781 85.851562 L 115.050781 83.617188 C 115.050781 80.890625 114.707031 77.917969 114.042969 75.167969 C 113.210938 71.632812 112.816406 70.40625 112.546875 70.675781 C 112.398438 70.824219 112.398438 71.070312 112.546875 71.363281 C 112.890625 72.027344 113.527344 74.972656 113.824219 77.230469 C 114.65625 83.445312 114.4375 90.519531 113.183594 98.472656 C 112.964844 99.898438 112.546875 102.894531 112.253906 105.152344 C 111.957031 107.414062 111.640625 109.328125 111.566406 109.425781 C 111.269531 109.695312 108.082031 107.242188 105.824219 105.007812 C 103.371094 102.574219 100.917969 99.089844 100.085938 96.828125 L 99.546875 95.40625 L 100.109375 93.5625 C 100.402344 92.554688 100.699219 90.910156 100.773438 89.953125 L 100.894531 88.160156 L 102.390625 87.203125 C 103.199219 86.664062 104.28125 85.875 104.746094 85.433594 C 105.457031 84.820312 105.480469 84.769531 104.867188 85.1875 C 104.476562 85.484375 103.273438 86.320312 102.21875 87.03125 L 100.304688 88.355469 L 100.207031 89.78125 C 99.839844 95.28125 96.453125 100.265625 89.78125 105.128906 C 84.261719 109.179688 74.007812 112.03125 65.007812 112.054688 C 59.683594 112.054688 56.394531 111.488281 50.753906 109.625 C 47.910156 108.691406 44.695312 107.117188 42.414062 105.570312 C 40.894531 104.5625 40.648438 104 41.359375 103.289062 C 41.703125 102.945312 41.703125 102.894531 41.359375 102.894531 C 41.136719 102.894531 40.894531 103.214844 40.792969 103.65625 L 40.574219 104.417969 L 39.25 103.386719 C 36.699219 101.398438 33.902344 98.03125 34.785156 97.984375 C 34.882812 97.957031 35.347656 97.613281 35.816406 97.222656 L 36.671875 96.460938 L 35.914062 96.828125 C 35.496094 97.050781 35.03125 97.394531 34.859375 97.589844 C 34.417969 98.128906 34.171875 98.082031 33.730469 97.394531 C 33.386719 96.851562 33.410156 96.558594 34.148438 93.414062 C 34.5625 91.523438 34.957031 89.953125 34.980469 89.902344 C 35.03125 89.878906 35.421875 89.78125 35.863281 89.730469 C 36.304688 89.683594 38.5625 89.414062 40.84375 89.140625 C 45.871094 88.554688 52.078125 88.210938 55.929688 88.308594 C 58.359375 88.382812 58.605469 88.355469 57.769531 88.109375 C 56.394531 87.71875 43.714844 88.257812 38.882812 88.898438 C 36.601562 89.191406 35.128906 89.289062 34.980469 89.140625 C 34.5625 88.726562 35.886719 88.429688 40.722656 87.867188 C 44.546875 87.421875 46.855469 87.324219 52.25 87.324219 C 55.953125 87.324219 59.929688 87.398438 61.082031 87.472656 C 62.675781 87.59375 62.871094 87.570312 61.941406 87.421875 C 58.898438 86.882812 42.832031 86.390625 44.621094 86.90625 C 45.015625 87.007812 43.714844 87.226562 41.1875 87.496094 C 38.980469 87.742188 36.699219 88.011719 36.132812 88.085938 C 35.421875 88.183594 35.078125 88.136719 35.078125 87.9375 C 35.078125 87.792969 35.324219 87.644531 35.644531 87.644531 C 36.058594 87.621094 36.085938 87.59375 35.742188 87.496094 C 35.519531 87.449219 35.375 87.300781 35.445312 87.179688 C 35.519531 87.054688 35.472656 86.90625 35.347656 86.835938 C 34.957031 86.589844 35.347656 85.703125 35.914062 85.582031 C 39.519531 84.84375 57.449219 84.648438 62.0625 85.285156 C 65.078125 85.730469 66.378906 85.484375 63.558594 85.015625 C 58.675781 84.207031 53.648438 83.9375 46.976562 84.109375 C 43.347656 84.207031 39.46875 84.304688 38.390625 84.328125 C 37.3125 84.355469 36.160156 84.476562 35.863281 84.574219 C 35.324219 84.746094 35.300781 84.722656 35.445312 84.183594 C 35.546875 83.886719 35.644531 83.59375 35.667969 83.566406 C 35.691406 83.542969 36.625 83.421875 37.777344 83.273438 L 39.863281 83.027344 L 37.875 83.152344 C 36.011719 83.25 35.863281 83.222656 35.742188 82.757812 C 35.617188 82.265625 35.691406 82.242188 37.238281 82.265625 C 40.230469 82.339844 51.246094 81.875 51.441406 81.675781 C 51.636719 81.457031 41.996094 81.652344 38.023438 81.921875 C 36.648438 82.019531 36.011719 81.996094 36.183594 81.824219 C 36.699219 81.332031 41.285156 80.941406 47.785156 80.890625 C 51.488281 80.867188 54.554688 80.769531 54.628906 80.695312 C 54.777344 80.546875 50.65625 80.425781 47.46875 80.472656 C 46.042969 80.5 45.898438 80.472656 46.609375 80.300781 C 48.546875 79.835938 39.003906 80.671875 36.476562 81.1875 C 35.886719 81.308594 35.789062 81.257812 35.863281 80.867188 C 35.9375 80.5 36.328125 80.375 38.144531 80.105469 C 41.308594 79.6875 51.980469 79.441406 53.550781 79.761719 C 54.261719 79.910156 56.765625 80.15625 59.117188 80.300781 C 61.472656 80.425781 63.851562 80.621094 64.394531 80.671875 C 65.324219 80.792969 65.324219 80.769531 64.636719 80.546875 C 63.851562 80.277344 61.742188 80.03125 53.722656 79.296875 C 49.820312 78.953125 42.191406 79.246094 36.992188 79.933594 C 36.132812 80.054688 36.058594 80.007812 36.058594 79.46875 C 36.058594 78.953125 36.183594 78.878906 37.605469 78.707031 C 38.441406 78.609375 41.605469 78.4375 44.644531 78.335938 C 49.992188 78.191406 50.066406 78.164062 46.609375 78.117188 C 43.566406 78.042969 43.199219 77.992188 44.15625 77.796875 C 44.769531 77.648438 48.570312 77.527344 52.617188 77.527344 C 58.382812 77.503906 60.515625 77.574219 62.40625 77.894531 C 65.277344 78.363281 64.882812 78.535156 68.023438 75.441406 C 70.992188 72.515625 72.980469 69.128906 73.714844 65.714844 C 73.835938 65.125 74.035156 65.519531 74.964844 68.292969 C 75.996094 71.3125 78.71875 77.011719 79.332031 77.402344 C 79.726562 77.675781 79.945312 77.402344 80.238281 76.300781 C 80.386719 75.734375 80.730469 74.703125 80.976562 74.039062 C 81.464844 72.714844 82.398438 69.128906 82.570312 67.902344 C 84.359375 55.082031 83.453125 48.304688 78.964844 40.765625 C 78.03125 39.21875 76.902344 37.671875 77.074219 38.1875 Z M 57.253906 64.878906 C 57.597656 66.597656 57.890625 68.074219 57.890625 68.144531 C 57.890625 68.21875 56.886719 68.269531 55.636719 68.269531 C 53.625 68.269531 53.230469 68.195312 51.832031 67.507812 C 50.804688 66.992188 50.019531 66.769531 49.550781 66.84375 C 49.136719 66.917969 48.816406 66.917969 48.816406 66.84375 C 48.816406 66.796875 49.136719 66.328125 49.527344 65.835938 C 51.660156 63.113281 55.242188 56.703125 55.980469 54.269531 C 56.273438 53.214844 56.296875 53.363281 56.46875 57.464844 C 56.566406 60.605469 56.789062 62.597656 57.253906 64.878906 Z M 51.980469 67.828125 C 53.453125 68.5625 53.796875 68.613281 55.832031 68.613281 L 58.0625 68.589844 L 58.726562 70.109375 C 59.730469 72.445312 62.355469 76.324219 63.609375 77.378906 C 64.246094 77.917969 64.097656 77.945312 61.695312 77.574219 C 56.296875 76.816406 52.226562 76.644531 47.097656 76.988281 C 44.328125 77.183594 41.605469 77.429688 41.039062 77.503906 C 40.304688 77.601562 39.984375 77.574219 39.984375 77.355469 C 39.984375 76.988281 41.480469 74.898438 41.75 74.898438 C 41.875 74.898438 42.046875 74.703125 42.121094 74.457031 C 42.21875 74.234375 42.855469 73.425781 43.566406 72.6875 C 44.277344 71.953125 45.210938 70.898438 45.675781 70.355469 C 47.074219 68.710938 48.421875 67.359375 48.816406 67.214844 C 49.625 66.917969 50.460938 67.089844 51.980469 67.828125 Z M 37.238281 72.125 C 37.753906 73.476562 37.800781 73.867188 37.457031 73.992188 C 36.84375 74.234375 36.574219 73.792969 36.625 72.617188 C 36.671875 71.3125 36.871094 71.167969 37.238281 72.125 Z M 37.898438 74.628906 C 37.828125 74.777344 37.925781 74.949219 38.121094 75.070312 C 38.464844 75.269531 39.640625 77.550781 39.46875 77.722656 C 39.421875 77.773438 38.683594 77.894531 37.828125 77.992188 C 36.5 78.140625 36.304688 78.117188 36.304688 77.746094 C 36.304688 77.503906 36.476562 77.132812 36.699219 76.9375 C 37.015625 76.617188 37.015625 76.496094 36.746094 76.324219 C 36.5 76.128906 36.5 76.054688 36.746094 75.957031 C 36.894531 75.90625 37.042969 75.683594 37.042969 75.511719 C 37.042969 75.339844 37.1875 75.121094 37.359375 75.070312 C 37.582031 74.972656 37.554688 74.875 37.285156 74.679688 C 36.992188 74.457031 37.015625 74.410156 37.484375 74.410156 C 37.800781 74.410156 38 74.507812 37.898438 74.628906 Z M 40.964844 75.144531 C 40.964844 75.269531 40.523438 75.390625 39.984375 75.390625 C 39.445312 75.390625 39.003906 75.269531 39.003906 75.144531 C 39.003906 74.996094 39.445312 74.898438 39.984375 74.898438 C 40.523438 74.898438 40.964844 74.996094 40.964844 75.144531 Z M 40.304688 75.808594 C 40.132812 75.855469 39.789062 75.855469 39.566406 75.808594 C 39.324219 75.734375 39.46875 75.683594 39.863281 75.683594 C 40.28125 75.683594 40.449219 75.734375 40.304688 75.808594 Z M 39.984375 76.371094 C 39.984375 76.496094 39.886719 76.617188 39.738281 76.617188 C 39.617188 76.617188 39.496094 76.496094 39.496094 76.371094 C 39.496094 76.226562 39.617188 76.128906 39.738281 76.128906 C 39.886719 76.128906 39.984375 76.226562 39.984375 76.371094 Z M 64.171875 112.472656 C 66.527344 112.472656 66.722656 112.519531 66.722656 112.9375 C 66.722656 113.332031 66.476562 113.429688 65.152344 113.578125 C 63.511719 113.75 61.84375 113.503906 60.296875 112.839844 C 59.046875 112.324219 59.117188 112.128906 60.492188 112.324219 C 61.128906 112.398438 62.773438 112.472656 64.171875 112.472656 Z M 64.171875 112.472656 "/>
<path style=" stroke:none;fill-rule:nonzero;fill:rgb(0%,0%,0%);fill-opacity:1;" d="M 41.652344 75.5625 C 41.824219 75.636719 42.046875 75.613281 42.121094 75.539062 C 42.21875 75.464844 42.070312 75.390625 41.800781 75.414062 C 41.53125 75.414062 41.457031 75.488281 41.652344 75.5625 Z M 41.652344 75.5625 "/>
<path style=" stroke:none;fill-rule:nonzero;fill:rgb(0%,0%,0%);fill-opacity:1;" d="M 42.878906 75.585938 C 42.632812 75.683594 44.179688 75.734375 46.3125 75.683594 C 51.90625 75.585938 52.542969 75.488281 47.589844 75.441406 C 45.234375 75.441406 43.101562 75.488281 42.878906 75.585938 Z M 42.878906 75.585938 "/>
<path style=" stroke:none;fill-rule:nonzero;fill:rgb(0%,0%,0%);fill-opacity:1;" d="M 53.550781 75.808594 C 53.917969 75.855469 54.507812 75.855469 54.898438 75.808594 C 55.269531 75.757812 54.949219 75.710938 54.210938 75.710938 C 53.476562 75.710938 53.15625 75.757812 53.550781 75.808594 Z M 53.550781 75.808594 "/>
<path style=" stroke:none;fill-rule:nonzero;fill:rgb(0%,0%,0%);fill-opacity:1;" d="M 56.617188 76.054688 C 56.910156 76.101562 57.351562 76.101562 57.597656 76.054688 C 57.820312 75.980469 57.574219 75.929688 57.035156 75.957031 C 56.496094 75.957031 56.296875 76.003906 56.617188 76.054688 Z M 56.617188 76.054688 "/>
<path style=" stroke:none;fill-rule:nonzero;fill:rgb(0%,0%,0%);fill-opacity:1;" d="M 59.070312 76.300781 C 59.242188 76.371094 59.460938 76.347656 59.535156 76.273438 C 59.632812 76.199219 59.488281 76.128906 59.21875 76.152344 C 58.949219 76.152344 58.875 76.226562 59.070312 76.300781 Z M 59.070312 76.300781 "/>
<path style=" stroke:none;fill-rule:nonzero;fill:rgb(0%,0%,0%);fill-opacity:1;" d="M 114.632812 41.796875 C 114.265625 42.289062 114.019531 42.730469 114.140625 42.730469 C 114.214844 42.730469 114.4375 42.460938 114.65625 42.117188 C 115.074219 41.476562 115.050781 41.257812 114.632812 41.796875 Z M 114.632812 41.796875 "/>
<path style=" stroke:none;fill-rule:nonzero;fill:rgb(0%,0%,0%);fill-opacity:1;" d="M 23.179688 44.867188 C 22.054688 48.550781 21.683594 49.703125 21.464844 50.195312 C 21.316406 50.539062 21.339844 50.613281 21.539062 50.488281 C 21.683594 50.390625 22.101562 49.410156 22.421875 48.304688 C 23.671875 44.128906 24.015625 42.875 23.917969 42.777344 C 23.867188 42.730469 23.550781 43.664062 23.179688 44.867188 Z M 23.179688 44.867188 "/>
<path style=" stroke:none;fill-rule:nonzero;fill:rgb(0%,0%,0%);fill-opacity:1;" d="M 112.816406 43.636719 C 112.496094 44.03125 112.523438 44.054688 112.914062 43.734375 C 113.308594 43.417969 113.429688 43.21875 113.234375 43.21875 C 113.183594 43.21875 112.988281 43.417969 112.816406 43.636719 Z M 112.816406 43.636719 "/>
<path style=" stroke:none;fill-rule:nonzero;fill:rgb(0%,0%,0%);fill-opacity:1;" d="M 114.828125 49.507812 C 114.828125 49.777344 114.902344 49.851562 114.976562 49.65625 C 115.050781 49.484375 115.023438 49.261719 114.949219 49.1875 C 114.878906 49.089844 114.804688 49.238281 114.828125 49.507812 Z M 114.828125 49.507812 "/>
<path style=" stroke:none;fill-rule:nonzero;fill:rgb(0%,0%,0%);fill-opacity:1;" d="M 114.828125 50.488281 C 114.828125 50.757812 114.902344 50.832031 114.976562 50.636719 C 115.050781 50.464844 115.023438 50.242188 114.949219 50.171875 C 114.878906 50.070312 114.804688 50.21875 114.828125 50.488281 Z M 114.828125 50.488281 "/>
<path style=" stroke:none;fill-rule:nonzero;fill:rgb(0%,0%,0%);fill-opacity:1;" d="M 167.128906 51.003906 C 163.105469 51.078125 162.882812 51.101562 162.882812 51.570312 C 162.882812 51.9375 163.054688 52.0625 163.570312 52.0625 C 164.921875 52.0625 165.3125 52.332031 165.582031 53.339844 C 166 54.835938 165.804688 72.492188 165.386719 73.007812 C 165.191406 73.230469 164.550781 73.476562 163.964844 73.574219 C 163.128906 73.695312 162.882812 73.820312 162.882812 74.1875 C 162.882812 74.628906 163.152344 74.652344 167.667969 74.652344 C 172.179688 74.652344 172.449219 74.628906 172.449219 74.1875 C 172.449219 73.820312 172.207031 73.71875 171.199219 73.621094 C 169.210938 73.425781 169.140625 73.277344 169.066406 68.785156 L 168.992188 64.878906 L 171.027344 64.707031 C 174.609375 64.414062 176.328125 63.847656 177.921875 62.398438 C 179.492188 61 180.25 58.324219 179.835938 55.71875 C 179.515625 53.730469 178.632812 52.503906 177.011719 51.691406 C 175.542969 50.980469 173.824219 50.859375 167.128906 51.003906 Z M 173.480469 52.308594 C 175.566406 52.894531 176.375 54.320312 176.375 57.390625 C 176.375 59.648438 175.835938 61.148438 174.660156 62.226562 C 173.554688 63.210938 172.402344 63.601562 170.4375 63.601562 L 169.015625 63.601562 L 169.015625 52.0625 L 170.808594 52.0625 C 171.765625 52.0625 172.992188 52.183594 173.480469 52.308594 Z M 173.480469 52.308594 "/>
<path style=" stroke:none;fill-rule:nonzero;fill:rgb(0%,0%,0%);fill-opacity:1;" d="M 19.992188 51.9375 L 19.257812 52.550781 L 20.1875 52.035156 C 20.679688 51.765625 21.097656 51.472656 21.097656 51.421875 C 21.097656 51.175781 20.679688 51.375 19.992188 51.9375 Z M 19.992188 51.9375 "/>
<path style=" stroke:none;fill-rule:nonzero;fill:rgb(0%,0%,0%);fill-opacity:1;" d="M 115.320312 53.191406 C 115.320312 53.460938 115.390625 53.535156 115.464844 53.339844 C 115.539062 53.167969 115.515625 52.945312 115.441406 52.871094 C 115.367188 52.773438 115.292969 52.921875 115.320312 53.191406 Z M 115.320312 53.191406 "/>
<path style=" stroke:none;fill-rule:nonzero;fill:rgb(0%,0%,0%);fill-opacity:1;" d="M 319.953125 53.753906 L 318.410156 54.097656 L 318.410156 57.21875 L 317.058594 57.21875 C 315.734375 57.21875 315.710938 57.21875 315.710938 57.953125 C 315.710938 58.691406 315.734375 58.691406 317.035156 58.691406 L 318.382812 58.691406 L 318.457031 65.25 C 318.507812 70.824219 318.605469 71.953125 318.949219 72.566406 C 319.464844 73.523438 320.320312 74.308594 321.179688 74.628906 C 322.015625 74.949219 324.125 75.023438 325.226562 74.777344 C 325.890625 74.628906 326.011719 74.507812 326.011719 73.890625 C 326.011719 73.253906 325.964844 73.179688 325.546875 73.425781 C 325.277344 73.546875 324.589844 73.671875 323.976562 73.671875 C 323.144531 73.671875 322.773438 73.523438 322.308594 73.03125 L 321.71875 72.394531 L 321.648438 65.542969 L 321.574219 58.691406 L 326.257812 58.691406 L 326.257812 57.21875 L 321.621094 57.21875 L 321.546875 55.304688 L 321.476562 53.410156 Z M 319.953125 53.753906 "/>
<path style=" stroke:none;fill-rule:nonzero;fill:rgb(0%,0%,0%);fill-opacity:1;" d="M 115.589844 54.515625 C 115.589844 54.859375 115.636719 54.984375 115.710938 54.8125 C 115.761719 54.664062 115.761719 54.371094 115.710938 54.199219 C 115.636719 54.050781 115.589844 54.171875 115.589844 54.515625 Z M 115.589844 54.515625 "/>
<path style=" stroke:none;fill-rule:nonzero;fill:rgb(0%,0%,0%);fill-opacity:1;" d="M 83.648438 54.933594 C 83.648438 55.597656 86.691406 62.867188 88.3125 66.058594 C 88.972656 67.335938 88.996094 67.507812 88.605469 67.605469 C 88.261719 67.703125 88.261719 67.730469 88.679688 67.753906 C 88.996094 67.777344 89.609375 68.464844 90.492188 69.839844 C 91.746094 71.78125 94.273438 74.652344 94.714844 74.652344 C 94.835938 74.652344 94.933594 74.53125 94.933594 74.382812 C 94.933594 73.992188 96.726562 70.234375 96.921875 70.234375 C 97.117188 70.234375 98.148438 72.835938 98.710938 74.703125 C 98.90625 75.367188 99.007812 75.882812 98.933594 75.882812 C 98.859375 75.882812 98.933594 76.027344 99.078125 76.226562 C 99.300781 76.496094 99.277344 76.644531 99.007812 76.9375 C 98.664062 77.257812 98.6875 77.304688 99.105469 77.429688 C 99.398438 77.503906 99.59375 77.773438 99.59375 78.089844 C 99.59375 78.582031 99.496094 78.632812 98.808594 78.484375 C 92.652344 77.207031 86.960938 76.863281 82.421875 77.476562 C 78.988281 77.917969 78.082031 78.238281 81.074219 77.917969 C 83.527344 77.675781 90.960938 77.746094 92.601562 78.066406 L 93.828125 78.289062 L 92.359375 78.335938 C 91.15625 78.410156 91.351562 78.4375 93.460938 78.582031 C 98.394531 78.925781 99.398438 79.097656 99.25 79.539062 C 99.175781 79.761719 99.347656 79.613281 99.667969 79.195312 C 99.960938 78.804688 100.527344 78.164062 100.945312 77.796875 C 101.628906 77.160156 101.628906 77.109375 101.140625 77.109375 C 100.378906 77.109375 100.160156 76.617188 100.820312 76.445312 C 101.359375 76.300781 101.359375 76.273438 100.917969 75.957031 C 100.503906 75.636719 100.453125 75.242188 100.453125 71.09375 C 100.453125 68.589844 100.527344 66.550781 100.648438 66.550781 C 100.746094 66.550781 100.820312 66.746094 100.820312 66.96875 C 100.820312 67.1875 100.871094 67.3125 100.945312 67.261719 C 101.1875 66.992188 100.625 63.0625 100.28125 62.792969 C 99.644531 62.253906 98.613281 60.679688 98.613281 60.238281 C 98.613281 59.992188 98.515625 59.675781 98.417969 59.503906 C 98.320312 59.355469 98.246094 60.460938 98.246094 61.957031 C 98.222656 63.847656 98.074219 65.175781 97.78125 66.179688 C 97.191406 68.21875 95.988281 71.3125 95.203125 72.886719 L 94.542969 74.1875 L 93.191406 72.761719 C 91.988281 71.484375 90.101562 68.6875 89.953125 67.925781 C 89.929688 67.777344 89.832031 67.605469 89.734375 67.53125 C 89.511719 67.359375 86.398438 60.828125 84.949219 57.488281 C 83.773438 54.761719 83.648438 54.515625 83.648438 54.933594 Z M 83.648438 54.933594 "/>
<path style=" stroke:none;fill-rule:nonzero;fill:rgb(0%,0%,0%);fill-opacity:1;" d="M 101.089844 56.382812 C 101.089844 56.652344 101.164062 56.726562 101.238281 56.53125 C 101.3125 56.359375 101.289062 56.136719 101.214844 56.0625 C 101.140625 55.964844 101.066406 56.113281 101.089844 56.382812 Z M 101.089844 56.382812 "/>
<path style=" stroke:none;fill-rule:nonzero;fill:rgb(0%,0%,0%);fill-opacity:1;" d="M 115.835938 56.726562 C 115.835938 57.195312 115.882812 57.390625 115.957031 57.144531 C 116.003906 56.921875 116.003906 56.53125 115.957031 56.285156 C 115.882812 56.0625 115.835938 56.261719 115.835938 56.726562 Z M 115.835938 56.726562 "/>
<path style=" stroke:none;fill-rule:nonzero;fill:rgb(0%,0%,0%);fill-opacity:1;" d="M 190.675781 57.488281 C 190.113281 57.757812 189.207031 58.46875 188.664062 59.085938 L 187.660156 60.164062 L 187.660156 59.230469 C 187.660156 57.167969 187.710938 57.21875 184.445312 57.21875 C 181.699219 57.21875 181.527344 57.242188 181.527344 57.710938 C 181.527344 58.027344 181.75 58.226562 182.214844 58.324219 C 183.90625 58.667969 184.078125 58.789062 184.300781 59.796875 C 184.644531 61.417969 184.398438 72.542969 184.03125 73.007812 C 183.832031 73.230469 183.195312 73.476562 182.605469 73.574219 C 181.773438 73.695312 181.527344 73.820312 181.527344 74.1875 C 181.527344 74.628906 181.773438 74.652344 186.1875 74.652344 C 190.578125 74.652344 190.847656 74.628906 190.847656 74.1875 C 190.847656 73.820312 190.605469 73.71875 189.574219 73.597656 C 187.539062 73.351562 187.5625 73.402344 187.4375 67.53125 C 187.367188 62.621094 187.390625 62.351562 187.878906 61.539062 C 188.519531 60.535156 189.648438 59.773438 190.875 59.550781 C 191.902344 59.355469 192.246094 59.675781 192.371094 60.902344 C 192.445312 61.710938 192.515625 61.761719 193.375 61.835938 L 194.285156 61.910156 L 194.285156 56.972656 L 193.007812 56.972656 C 192.199219 56.972656 191.316406 57.167969 190.675781 57.488281 Z M 190.675781 57.488281 "/>
<path style=" stroke:none;fill-rule:nonzero;fill:rgb(0%,0%,0%);fill-opacity:1;" d="M 202.378906 57.316406 C 199.261719 58.347656 197.496094 60.605469 197.007812 64.167969 C 196.125 70.554688 199.410156 74.949219 205.078125 74.949219 C 210.667969 74.949219 213.957031 70.625 213.148438 64.289062 C 212.707031 60.679688 210.71875 58.175781 207.628906 57.265625 C 206.375 56.898438 203.53125 56.921875 202.378906 57.316406 Z M 206.769531 58.296875 C 208.4375 59.183594 209.714844 61.910156 209.910156 65.003906 C 210.277344 70.675781 207.578125 74.851562 204.144531 73.941406 C 202.941406 73.597656 201.839844 72.445312 201.027344 70.652344 C 200.144531 68.734375 199.925781 65.222656 200.515625 62.867188 C 201.003906 60.925781 201.984375 59.257812 203.089844 58.519531 C 204.070312 57.855469 205.714844 57.757812 206.769531 58.296875 Z M 206.769531 58.296875 "/>
<path style=" stroke:none;fill-rule:nonzero;fill:rgb(0%,0%,0%);fill-opacity:1;" d="M 221.023438 57.367188 C 217.414062 58.617188 215.992188 63.308594 218.25 66.625 C 218.59375 67.113281 219.253906 67.777344 219.722656 68.046875 L 220.554688 68.589844 L 219.523438 69.277344 C 218.960938 69.644531 218.273438 70.28125 218.027344 70.699219 C 217.613281 71.339844 217.585938 71.585938 217.832031 72.296875 C 217.980469 72.761719 218.398438 73.328125 218.742188 73.574219 L 219.378906 73.992188 L 218.667969 74.359375 C 217.613281 74.898438 216.582031 75.90625 216.214844 76.789062 C 215.746094 77.894531 216.238281 79.074219 217.515625 79.910156 C 219.867188 81.480469 225.65625 81.75 228.503906 80.449219 C 231.03125 79.296875 232.0625 77.945312 232.0625 75.757812 C 232.0625 74.136719 231.496094 73.230469 230.148438 72.617188 C 229.191406 72.171875 228.40625 72.074219 225.4375 72 C 221.167969 71.902344 220.53125 71.730469 220.53125 70.601562 C 220.53125 69.277344 221.195312 68.933594 223.476562 68.980469 C 225.730469 69.054688 227.03125 68.589844 228.332031 67.3125 C 229.4375 66.179688 229.878906 65.222656 230.023438 63.601562 C 230.171875 61.980469 229.828125 60.65625 228.945312 59.476562 C 228.601562 59.035156 228.382812 58.617188 228.453125 58.542969 C 228.503906 58.46875 229.265625 58.542969 230.121094 58.691406 C 232.304688 59.035156 232.257812 59.035156 232.675781 58.054688 C 232.871094 57.5625 233.042969 57.144531 233.042969 57.121094 C 233.042969 57.09375 231.789062 57.195312 230.292969 57.292969 C 228.382812 57.464844 227.105469 57.4375 226.148438 57.242188 C 224.308594 56.875 222.347656 56.921875 221.023438 57.367188 Z M 225.414062 58.347656 C 226.417969 59.058594 226.910156 60.535156 226.910156 62.988281 C 226.910156 66.523438 225.878906 68.121094 223.597656 68.074219 C 221.339844 68.046875 220.410156 66.550781 220.410156 62.867188 C 220.410156 59.28125 221.265625 57.980469 223.71875 57.953125 C 224.382812 57.953125 225.070312 58.125 225.414062 58.347656 Z M 227.03125 74.410156 C 229.777344 75.046875 229.753906 78.164062 227.007812 79.738281 C 226.222656 80.203125 225.65625 80.300781 223.964844 80.300781 C 221.195312 80.300781 219.84375 79.6875 219.328125 78.214844 C 218.914062 77.011719 219.109375 75.710938 219.820312 74.800781 C 220.308594 74.1875 220.382812 74.164062 223.179688 74.164062 C 224.75 74.164062 226.492188 74.285156 227.03125 74.410156 Z M 227.03125 74.410156 "/>
<path style=" stroke:none;fill-rule:nonzero;fill:rgb(0%,0%,0%);fill-opacity:1;" d="M 243.394531 57.511719 C 242.828125 57.78125 241.921875 58.519531 241.382812 59.132812 L 240.402344 60.238281 L 240.402344 57.21875 L 237.335938 57.21875 C 234.441406 57.21875 234.269531 57.242188 234.269531 57.710938 C 234.269531 58.027344 234.488281 58.226562 234.957031 58.324219 C 236.574219 58.667969 236.820312 58.8125 237.015625 59.648438 C 237.382812 61 237.164062 72.542969 236.769531 73.007812 C 236.574219 73.230469 235.9375 73.476562 235.347656 73.574219 C 234.511719 73.695312 234.269531 73.820312 234.269531 74.1875 C 234.269531 74.628906 234.511719 74.652344 238.929688 74.652344 C 243.320312 74.652344 243.589844 74.628906 243.589844 74.1875 C 243.589844 73.820312 243.34375 73.71875 242.3125 73.597656 C 240.304688 73.351562 240.328125 73.425781 240.203125 67.558594 C 240.105469 62.597656 240.105469 62.375 240.621094 61.539062 C 241.921875 59.453125 245.0625 58.742188 245.0625 60.535156 C 245.0625 61.589844 245.308594 61.882812 246.191406 61.882812 L 247.023438 61.882812 L 247.023438 56.972656 L 245.75 56.972656 C 244.964844 56.996094 244.03125 57.195312 243.394531 57.511719 Z M 243.394531 57.511719 "/>
<path style=" stroke:none;fill-rule:nonzero;fill:rgb(0%,0%,0%);fill-opacity:1;" d="M 254.75 57.121094 C 254.480469 57.195312 253.523438 57.464844 252.617188 57.757812 L 250.949219 58.273438 L 250.949219 61.636719 L 251.929688 61.636719 C 252.789062 61.636719 252.910156 61.566406 253.058594 60.949219 C 253.304688 59.699219 253.648438 59.183594 254.433594 58.691406 C 255.414062 58.101562 257.351562 58.027344 258.1875 58.59375 C 259.019531 59.132812 259.535156 60.65625 259.535156 62.597656 L 259.535156 64.265625 L 257.644531 64.414062 C 254.800781 64.632812 253.28125 65.027344 251.980469 65.886719 C 250.457031 66.917969 249.699219 68.34375 249.699219 70.109375 C 249.699219 71.828125 250.3125 73.082031 251.613281 74.015625 C 253.695312 75.464844 256.101562 75.316406 258.699219 73.523438 L 260.269531 72.445312 L 260.761719 73.425781 C 261.324219 74.554688 261.988281 74.972656 263.214844 74.972656 C 264.589844 74.972656 265.175781 74.703125 265.175781 74.0625 C 265.175781 73.597656 265.078125 73.523438 264.613281 73.597656 C 264.292969 73.671875 263.804688 73.5 263.460938 73.230469 L 262.847656 72.738281 L 262.722656 66.5 C 262.601562 60.535156 262.578125 60.238281 262.011719 59.28125 C 261.128906 57.734375 259.878906 57.121094 257.328125 57.070312 C 256.175781 57.023438 255.019531 57.046875 254.75 57.121094 Z M 259.484375 68.6875 L 259.414062 72.027344 L 258.308594 72.589844 C 256.320312 73.621094 254.40625 73.179688 253.453125 71.484375 C 251.734375 68.441406 254.210938 65.445312 258.503906 65.347656 L 259.558594 65.320312 Z M 259.484375 68.6875 "/>
<path style=" stroke:none;fill-rule:nonzero;fill:rgb(0%,0%,0%);fill-opacity:1;" d="M 276.042969 57.464844 C 275.457031 57.710938 274.449219 58.445312 273.761719 59.085938 L 272.535156 60.238281 L 272.535156 57.21875 L 269.46875 57.21875 C 266.574219 57.21875 266.402344 57.242188 266.402344 57.710938 C 266.402344 58.027344 266.625 58.226562 267.089844 58.324219 C 268.710938 58.667969 268.953125 58.8125 269.152344 59.648438 C 269.519531 61 269.296875 72.542969 268.90625 73.007812 C 268.710938 73.230469 268.070312 73.476562 267.484375 73.574219 C 266.648438 73.695312 266.402344 73.820312 266.402344 74.1875 C 266.402344 74.628906 266.648438 74.652344 270.941406 74.652344 C 275.210938 74.652344 275.480469 74.628906 275.480469 74.1875 C 275.480469 73.84375 275.234375 73.695312 274.351562 73.574219 C 273.714844 73.5 273.050781 73.304688 272.878906 73.15625 C 272.609375 72.933594 272.535156 71.65625 272.535156 67.1875 C 272.535156 61.589844 272.535156 61.464844 273.101562 60.976562 C 274.351562 59.820312 275.699219 59.160156 277 59.011719 C 278.179688 58.886719 278.398438 58.960938 279.0625 59.503906 L 279.773438 60.117188 L 279.847656 66.28125 C 279.894531 70.308594 279.820312 72.589844 279.648438 72.910156 C 279.476562 73.253906 279.035156 73.449219 278.179688 73.574219 C 277.195312 73.695312 276.953125 73.820312 276.953125 74.1875 C 276.953125 74.628906 277.222656 74.652344 281.488281 74.652344 C 285.757812 74.652344 286.027344 74.628906 286.027344 74.1875 C 286.027344 73.820312 285.78125 73.695312 284.800781 73.574219 C 283.96875 73.449219 283.5 73.253906 283.328125 72.933594 C 283.183594 72.664062 283.085938 70.234375 283.085938 66.96875 L 283.085938 61.441406 L 284.285156 60.558594 C 285.808594 59.453125 286.984375 58.9375 288.113281 58.9375 C 290.371094 58.9375 290.566406 59.574219 290.566406 66.820312 C 290.566406 71.339844 290.492188 72.714844 290.222656 73.007812 C 290.050781 73.230469 289.363281 73.5 288.703125 73.574219 C 287.746094 73.695312 287.5 73.820312 287.5 74.1875 C 287.5 74.628906 287.769531 74.652344 292.039062 74.652344 C 296.332031 74.652344 296.578125 74.628906 296.578125 74.1875 C 296.578125 73.820312 296.304688 73.671875 295.421875 73.523438 C 293.683594 73.203125 293.632812 73.058594 293.632812 66.179688 C 293.632812 61 293.558594 60.164062 293.167969 59.304688 C 292.40625 57.660156 291.179688 56.972656 288.949219 56.972656 C 287.351562 56.972656 285.90625 57.660156 284.261719 59.160156 L 282.886719 60.410156 L 282.617188 59.601562 C 282.300781 58.640625 281.292969 57.609375 280.3125 57.242188 C 279.234375 56.824219 277.195312 56.921875 276.042969 57.464844 Z M 276.042969 57.464844 "/>
<path style=" stroke:none;fill-rule:nonzero;fill:rgb(0%,0%,0%);fill-opacity:1;" d="M 302.710938 57.316406 C 302.097656 57.488281 301.140625 57.78125 300.574219 57.953125 L 299.519531 58.273438 L 299.519531 61.636719 L 300.625 61.636719 C 301.582031 61.636719 301.726562 61.566406 301.726562 61.148438 C 301.726562 60.214844 302.414062 58.960938 303.175781 58.59375 C 303.566406 58.371094 304.476562 58.199219 305.136719 58.199219 C 307.34375 58.199219 308.351562 59.773438 308.351562 63.257812 L 308.351562 64.339844 L 307.320312 64.339844 C 305.53125 64.363281 302.929688 64.804688 301.753906 65.347656 C 298.246094 66.894531 297.214844 70.625 299.542969 73.277344 C 300.648438 74.53125 301.726562 74.972656 303.542969 74.949219 C 305.039062 74.925781 306.167969 74.480469 307.761719 73.277344 C 308.398438 72.789062 308.964844 72.46875 309.011719 72.589844 C 309.699219 74.554688 311.222656 75.339844 313.332031 74.824219 C 313.820312 74.679688 313.992188 74.507812 313.992188 74.015625 C 313.992188 73.5 313.894531 73.425781 313.503906 73.546875 C 313.234375 73.621094 312.816406 73.648438 312.570312 73.546875 C 311.613281 73.253906 311.464844 72.320312 311.320312 66.058594 C 311.171875 59.699219 311.074219 59.207031 309.871094 58.125 C 308.671875 57.023438 305.136719 56.628906 302.710938 57.316406 Z M 308.351562 68.636719 L 308.351562 71.976562 L 307.074219 72.566406 C 305.578125 73.253906 304.449219 73.328125 303.445312 72.8125 C 301.164062 71.632812 301.039062 68.121094 303.25 66.476562 C 304.035156 65.886719 305.898438 65.371094 307.320312 65.347656 L 308.351562 65.320312 Z M 308.351562 68.636719 "/>
<path style=" stroke:none;fill-rule:nonzero;fill:rgb(0%,0%,0%);fill-opacity:1;" d="M 333.765625 57.585938 C 331.972656 58.324219 330.625 59.601562 329.742188 61.394531 C 329.128906 62.644531 329.078125 62.964844 329.078125 65.9375 C 329.078125 68.933594 329.128906 69.203125 329.765625 70.527344 C 330.992188 73.007812 333.027344 74.507812 335.703125 74.875 C 338.71875 75.292969 341.710938 74.285156 343.355469 72.296875 C 346.375 68.589844 345.808594 61.34375 342.253906 58.570312 C 340.070312 56.875 336.488281 56.457031 333.765625 57.585938 Z M 339.039062 58.519531 C 340.144531 59.257812 341.371094 61.367188 341.738281 63.085938 C 342.128906 65.050781 341.910156 68.808594 341.269531 70.453125 C 339.847656 74.136719 336.414062 75.167969 334.207031 72.589844 C 332.757812 70.898438 332.292969 69.324219 332.292969 65.910156 C 332.269531 62.988281 332.269531 62.964844 333.199219 61.074219 C 334.328125 58.765625 335.359375 57.953125 337.078125 57.953125 C 337.835938 57.953125 338.476562 58.125 339.039062 58.519531 Z M 339.039062 58.519531 "/>
<path style=" stroke:none;fill-rule:nonzero;fill:rgb(0%,0%,0%);fill-opacity:1;" d="M 356.652344 57.585938 C 356.015625 57.90625 355.105469 58.640625 354.617188 59.207031 L 353.734375 60.261719 L 353.734375 57.21875 L 350.667969 57.21875 C 347.773438 57.21875 347.601562 57.242188 347.601562 57.710938 C 347.601562 58.027344 347.796875 58.226562 348.214844 58.324219 C 348.558594 58.398438 349.097656 58.496094 349.441406 58.570312 C 349.808594 58.640625 350.175781 58.960938 350.296875 59.332031 C 350.667969 60.289062 350.617188 71.929688 350.226562 72.6875 C 350.003906 73.15625 349.636719 73.351562 348.753906 73.523438 C 347.871094 73.695312 347.601562 73.867188 347.601562 74.210938 C 347.601562 74.628906 347.894531 74.652344 352.261719 74.652344 C 356.652344 74.652344 356.921875 74.628906 356.921875 74.1875 C 356.921875 73.820312 356.675781 73.71875 355.644531 73.597656 C 354.835938 73.5 354.222656 73.277344 354.050781 73.007812 C 353.804688 72.714844 353.734375 71.117188 353.734375 67.164062 L 353.734375 61.710938 L 354.640625 60.828125 C 355.476562 59.992188 356.699219 59.429688 357.730469 59.429688 C 358.199219 59.429688 358.269531 59.574219 358.515625 60.949219 C 358.640625 61.808594 358.710938 61.882812 359.496094 61.882812 L 360.355469 61.882812 L 360.355469 56.972656 L 359.082031 56.972656 C 358.199219 56.996094 357.414062 57.195312 356.652344 57.585938 Z M 356.652344 57.585938 "/>
<path style=" stroke:none;fill-rule:nonzero;fill:rgb(0%,0%,0%);fill-opacity:1;" d="M 367.46875 57.195312 C 366.242188 57.5625 365.285156 58.226562 364.601562 59.085938 C 364.058594 59.820312 363.914062 60.289062 363.839844 61.613281 C 363.71875 64.316406 364.648438 65.296875 369.238281 67.3125 C 370.757812 67.972656 372.15625 68.710938 372.328125 68.933594 C 373.308594 70.257812 373.085938 72.246094 371.859375 73.277344 C 370.855469 74.136719 369.75 74.285156 368.082031 73.792969 C 366.292969 73.277344 365.507812 72.515625 365.507812 71.289062 C 365.507812 69.621094 365.285156 69.25 364.378906 69.25 L 363.546875 69.25 L 363.546875 73.84375 L 365.410156 74.410156 C 371.175781 76.101562 376.03125 73.992188 376.054688 69.742188 C 376.054688 67.507812 374.753906 66.253906 370.683594 64.5625 C 368.035156 63.480469 367.027344 62.769531 366.785156 61.835938 C 366.511719 60.753906 366.882812 59.355469 367.640625 58.640625 C 368.15625 58.175781 368.5 58.078125 369.949219 58.078125 C 372.15625 58.078125 372.816406 58.640625 373.039062 60.730469 C 373.1875 62.128906 373.1875 62.128906 373.996094 62.128906 L 374.828125 62.128906 L 374.828125 57.757812 L 373.136719 57.367188 C 371.347656 56.949219 368.523438 56.875 367.46875 57.195312 Z M 367.46875 57.195312 "/>
<path style=" stroke:none;fill-rule:nonzero;fill:rgb(0%,0%,0%);fill-opacity:1;" d="M 100.847656 57.855469 C 100.847656 58.125 100.917969 58.199219 100.992188 58.003906 C 101.066406 57.832031 101.042969 57.609375 100.96875 57.539062 C 100.894531 57.4375 100.820312 57.585938 100.847656 57.855469 Z M 100.847656 57.855469 "/>
<path style=" stroke:none;fill-rule:nonzero;fill:rgb(0%,0%,0%);fill-opacity:1;" d="M 100.625 60.042969 C 100.625 60.433594 100.675781 60.582031 100.746094 60.335938 C 100.796875 60.117188 100.796875 59.773438 100.746094 59.601562 C 100.675781 59.453125 100.625 59.625 100.625 60.042969 Z M 100.625 60.042969 "/>
<path style=" stroke:none;fill-rule:nonzero;fill:rgb(0%,0%,0%);fill-opacity:1;" d="M 115.121094 63.675781 C 114.902344 64.414062 115.023438 65.101562 116.152344 68.90625 C 116.863281 71.339844 118.335938 76.445312 119.441406 80.300781 C 122.039062 89.265625 121.867188 88.796875 121.894531 87.300781 C 121.917969 86.613281 121.648438 84.96875 121.328125 83.617188 C 120.738281 81.210938 116.71875 67.066406 115.835938 64.265625 L 115.390625 62.839844 Z M 115.121094 63.675781 "/>
<path style=" stroke:none;fill-rule:nonzero;fill:rgb(0%,0%,0%);fill-opacity:1;" d="M 101.089844 67.925781 C 101.089844 68.195312 101.164062 68.269531 101.238281 68.074219 C 101.3125 67.902344 101.289062 67.679688 101.214844 67.605469 C 101.140625 67.507812 101.066406 67.65625 101.089844 67.925781 Z M 101.089844 67.925781 "/>
<path style=" stroke:none;fill-rule:nonzero;fill:rgb(0%,0%,0%);fill-opacity:1;" d="M 84.261719 68.171875 L 82.792969 68.488281 L 84.140625 68.34375 C 84.875 68.269531 86.054688 68.121094 86.714844 68.023438 L 87.941406 67.851562 L 86.839844 67.851562 C 86.226562 67.851562 85.074219 68 84.261719 68.171875 Z M 84.261719 68.171875 "/>
<path style=" stroke:none;fill-rule:nonzero;fill:rgb(0%,0%,0%);fill-opacity:1;" d="M 101.335938 68.90625 C 101.335938 69.175781 101.410156 69.25 101.484375 69.054688 C 101.558594 68.882812 101.53125 68.660156 101.460938 68.589844 C 101.386719 68.488281 101.3125 68.636719 101.335938 68.90625 Z M 101.335938 68.90625 "/>
<path style=" stroke:none;fill-rule:nonzero;fill:rgb(0%,0%,0%);fill-opacity:1;" d="M 106.121094 70.652344 C 105.972656 70.996094 105.996094 71.019531 106.242188 70.796875 C 106.414062 70.625 106.488281 70.429688 106.414062 70.355469 C 106.339844 70.28125 106.195312 70.40625 106.121094 70.652344 Z M 106.121094 70.652344 "/>
<path style=" stroke:none;fill-rule:nonzero;fill:rgb(0%,0%,0%);fill-opacity:1;" d="M 102.074219 71.363281 C 102.074219 71.632812 102.144531 71.707031 102.21875 71.511719 C 102.292969 71.339844 102.269531 71.117188 102.195312 71.042969 C 102.121094 70.945312 102.046875 71.09375 102.074219 71.363281 Z M 102.074219 71.363281 "/>
<path style=" stroke:none;fill-rule:nonzero;fill:rgb(0%,0%,0%);fill-opacity:1;" d="M 105.628906 71.585938 C 105.410156 72.222656 105.457031 72.371094 105.75 71.878906 C 105.898438 71.632812 105.972656 71.363281 105.898438 71.3125 C 105.851562 71.242188 105.726562 71.363281 105.628906 71.585938 Z M 105.628906 71.585938 "/>
<path style=" stroke:none;fill-rule:nonzero;fill:rgb(0%,0%,0%);fill-opacity:1;" d="M 102.292969 72.171875 C 102.292969 72.320312 102.390625 72.492188 102.539062 72.566406 C 102.6875 72.640625 102.710938 72.542969 102.636719 72.34375 C 102.464844 71.902344 102.292969 71.828125 102.292969 72.171875 Z M 102.292969 72.171875 "/>
<path style=" stroke:none;fill-rule:nonzero;fill:rgb(0%,0%,0%);fill-opacity:1;" d="M 104.992188 73.03125 C 104.867188 73.351562 104.648438 73.695312 104.523438 73.792969 C 104.378906 73.867188 104.253906 74.089844 104.253906 74.234375 C 104.28125 74.605469 105.164062 73.449219 105.335938 72.859375 C 105.480469 72.246094 105.261719 72.34375 104.992188 73.03125 Z M 104.992188 73.03125 "/>
<path style=" stroke:none;fill-rule:nonzero;fill:rgb(0%,0%,0%);fill-opacity:1;" d="M 102.808594 73.007812 C 102.785156 73.105469 102.957031 73.597656 103.199219 74.113281 C 103.421875 74.605469 103.570312 75.097656 103.570312 75.195312 C 103.496094 75.511719 103.691406 75.414062 104.035156 74.972656 C 104.28125 74.679688 104.28125 74.605469 104.058594 74.753906 C 103.863281 74.875 103.617188 74.605469 103.300781 73.867188 C 103.027344 73.277344 102.808594 72.910156 102.808594 73.007812 Z M 102.808594 73.007812 "/>
<path style=" stroke:none;fill-rule:nonzero;fill:rgb(0%,0%,0%);fill-opacity:1;" d="M 93.660156 75.070312 C 93.828125 75.144531 94.050781 75.121094 94.125 75.046875 C 94.222656 74.972656 94.074219 74.898438 93.804688 74.925781 C 93.535156 74.925781 93.460938 74.996094 93.660156 75.070312 Z M 93.660156 75.070312 "/>
<path style=" stroke:none;fill-rule:nonzero;fill:rgb(0%,0%,0%);fill-opacity:1;" d="M 95.007812 75.070312 C 95.375 75.121094 95.964844 75.121094 96.355469 75.070312 C 96.726562 75.023438 96.40625 74.972656 95.667969 74.972656 C 94.933594 74.972656 94.613281 75.023438 95.007812 75.070312 Z M 95.007812 75.070312 "/>
<path style=" stroke:none;fill-rule:nonzero;fill:rgb(0%,0%,0%);fill-opacity:1;" d="M 88.824219 75.734375 C 88.875 75.785156 90.125 75.882812 91.574219 75.980469 C 93.386719 76.101562 94.199219 76.054688 94.074219 75.882812 C 93.976562 75.734375 92.847656 75.636719 91.328125 75.636719 C 89.878906 75.636719 88.777344 75.683594 88.824219 75.734375 Z M 88.824219 75.734375 "/>
<path style=" stroke:none;fill-rule:nonzero;fill:rgb(0%,0%,0%);fill-opacity:1;" d="M 102.636719 76.175781 L 102.171875 76.742188 L 102.734375 76.273438 C 103.027344 76.003906 103.273438 75.757812 103.273438 75.710938 C 103.273438 75.511719 103.078125 75.660156 102.636719 76.175781 Z M 102.636719 76.175781 "/>
<path style=" stroke:none;fill-rule:nonzero;fill:rgb(0%,0%,0%);fill-opacity:1;" d="M 85.6875 76.054688 C 86.054688 76.101562 86.640625 76.101562 87.035156 76.054688 C 87.402344 76.003906 87.085938 75.957031 86.347656 75.957031 C 85.613281 75.957031 85.292969 76.003906 85.6875 76.054688 Z M 85.6875 76.054688 "/>
<path style=" stroke:none;fill-rule:nonzero;fill:rgb(0%,0%,0%);fill-opacity:1;" d="M 83.476562 76.300781 C 83.699219 76.347656 84.042969 76.347656 84.214844 76.300781 C 84.359375 76.226562 84.1875 76.175781 83.773438 76.175781 C 83.378906 76.175781 83.234375 76.226562 83.476562 76.300781 Z M 83.476562 76.300781 "/>
<path style=" stroke:none;fill-rule:nonzero;fill:rgb(0%,0%,0%);fill-opacity:1;" d="M 81.882812 76.542969 C 82.054688 76.617188 82.277344 76.59375 82.351562 76.519531 C 82.449219 76.445312 82.300781 76.371094 82.03125 76.398438 C 81.761719 76.398438 81.6875 76.472656 81.882812 76.542969 Z M 81.882812 76.542969 "/>
<path style=" stroke:none;fill-rule:nonzero;fill:rgb(0%,0%,0%);fill-opacity:1;" d="M 110.191406 76.863281 C 110.191406 77.207031 110.242188 77.332031 110.316406 77.160156 C 110.363281 77.011719 110.363281 76.714844 110.316406 76.542969 C 110.242188 76.398438 110.191406 76.519531 110.191406 76.863281 Z M 110.191406 76.863281 "/>
<path style=" stroke:none;fill-rule:nonzero;fill:rgb(0%,0%,0%);fill-opacity:1;" d="M 109.921875 77.847656 C 109.898438 78.042969 109.628906 78.804688 109.285156 79.492188 C 108.964844 80.203125 108.746094 80.792969 108.816406 80.792969 C 109.0625 80.792969 110.191406 78.089844 110.070312 77.773438 C 109.972656 77.574219 109.921875 77.601562 109.921875 77.847656 Z M 109.921875 77.847656 "/>
<path style=" stroke:none;fill-rule:nonzero;fill:rgb(0%,0%,0%);fill-opacity:1;" d="M 78.203125 78.265625 C 78.351562 78.3125 78.644531 78.3125 78.816406 78.265625 C 78.964844 78.191406 78.839844 78.140625 78.5 78.140625 C 78.15625 78.140625 78.03125 78.191406 78.203125 78.265625 Z M 78.203125 78.265625 "/>
<path style=" stroke:none;fill-rule:nonzero;fill:rgb(0%,0%,0%);fill-opacity:1;" d="M 85.613281 79.441406 C 85.414062 79.492188 84.261719 79.640625 83.035156 79.8125 C 78.839844 80.351562 77.515625 80.597656 77.371094 80.84375 C 77.273438 80.988281 77.394531 81.039062 77.664062 80.964844 C 78.351562 80.742188 82.816406 80.300781 84.679688 80.253906 C 85.585938 80.226562 86.273438 80.128906 86.199219 80.007812 C 85.859375 79.46875 97.042969 79.984375 98.148438 80.570312 C 98.441406 80.71875 98.664062 80.644531 98.882812 80.375 C 99.078125 80.15625 99.128906 80.03125 98.980469 80.105469 C 98.859375 80.179688 97.679688 80.082031 96.40625 79.910156 C 94.148438 79.589844 86.371094 79.246094 85.613281 79.441406 Z M 85.613281 79.441406 "/>
<path style=" stroke:none;fill-rule:nonzero;fill:rgb(0%,0%,0%);fill-opacity:1;" d="M 88.433594 80.671875 L 85.246094 80.964844 L 89.414062 80.988281 C 93.757812 81.039062 97.632812 81.429688 97.632812 81.847656 C 97.632812 81.996094 96.039062 82.019531 93.289062 81.898438 C 90.542969 81.800781 88.703125 81.824219 88.3125 81.972656 C 87.867188 82.167969 88.679688 82.21875 91.402344 82.21875 C 94.714844 82.21875 96.675781 82.390625 97.191406 82.683594 C 97.535156 82.855469 96.652344 83.9375 96.210938 83.863281 C 95.988281 83.839844 95.941406 83.863281 96.113281 83.910156 C 96.257812 83.984375 96.40625 84.132812 96.40625 84.28125 C 96.40625 84.425781 95.890625 84.476562 95.007812 84.378906 C 91.351562 84.035156 88.410156 83.984375 85.367188 84.230469 C 81.664062 84.527344 77.859375 85.113281 77.273438 85.484375 C 76.878906 85.753906 77.394531 85.703125 80.363281 85.238281 C 82.105469 84.96875 93.289062 84.917969 94.933594 85.164062 C 95.964844 85.335938 96.039062 85.386719 95.988281 86.074219 C 95.941406 86.613281 96.011719 86.492188 96.257812 85.679688 C 96.429688 85.042969 96.824219 84.109375 97.09375 83.59375 C 98.292969 81.332031 98.367188 81.136719 97.925781 81.136719 C 97.679688 81.136719 96.527344 80.988281 95.300781 80.816406 C 91.84375 80.351562 91.792969 80.351562 88.433594 80.671875 Z M 88.433594 80.671875 "/>
<path style=" stroke:none;fill-rule:nonzero;fill:rgb(0%,0%,0%);fill-opacity:1;" d="M 84.582031 81.210938 C 84.753906 81.285156 84.972656 81.257812 85.046875 81.1875 C 85.144531 81.113281 85 81.039062 84.730469 81.0625 C 84.460938 81.0625 84.386719 81.136719 84.582031 81.210938 Z M 84.582031 81.210938 "/>
<path style=" stroke:none;fill-rule:nonzero;fill:rgb(0%,0%,0%);fill-opacity:1;" d="M 108.035156 81.800781 C 107.835938 82.21875 107.199219 83.078125 106.636719 83.714844 L 105.628906 84.84375 L 106.609375 83.910156 C 107.519531 83.078125 108.890625 81.039062 108.574219 81.039062 C 108.5 81.039062 108.253906 81.382812 108.035156 81.800781 Z M 108.035156 81.800781 "/>
<path style=" stroke:none;fill-rule:nonzero;fill:rgb(0%,0%,0%);fill-opacity:1;" d="M 51.464844 82.191406 C 51.761719 82.242188 52.25 82.242188 52.570312 82.191406 C 52.863281 82.144531 52.617188 82.09375 52.003906 82.09375 C 51.390625 82.09375 51.148438 82.144531 51.464844 82.191406 Z M 51.464844 82.191406 "/>
<path style=" stroke:none;fill-rule:nonzero;fill:rgb(0%,0%,0%);fill-opacity:1;" d="M 48.695312 82.511719 C 45.871094 82.609375 42.929688 82.734375 42.191406 82.757812 L 40.84375 82.832031 L 43.296875 83.175781 L 42.316406 83.222656 C 41.777344 83.273438 41.0625 83.394531 40.722656 83.519531 C 40.253906 83.667969 40.328125 83.691406 41.089844 83.617188 C 48.03125 82.78125 57.523438 82.78125 63.535156 83.640625 C 64.148438 83.738281 64.589844 83.738281 64.515625 83.667969 C 64.246094 83.371094 54.996094 82.167969 54.113281 82.316406 C 53.96875 82.339844 51.539062 82.4375 48.695312 82.511719 Z M 48.695312 82.511719 "/>
<path style=" stroke:none;fill-rule:nonzero;fill:rgb(0%,0%,0%);fill-opacity:1;" d="M 83.648438 82.683594 C 82.226562 82.855469 80.363281 83.152344 79.480469 83.347656 L 77.886719 83.714844 L 79.210938 83.59375 C 83.527344 83.125 84.875 83.050781 88.3125 83.125 C 90.394531 83.175781 92.601562 83.273438 93.214844 83.347656 C 93.828125 83.421875 94.125 83.421875 93.902344 83.347656 C 93.660156 83.273438 93.460938 83.101562 93.460938 82.980469 C 93.460938 82.855469 91.941406 82.757812 89.929688 82.757812 C 87.992188 82.757812 86.347656 82.660156 86.300781 82.5625 C 86.273438 82.464844 85.074219 82.511719 83.648438 82.683594 Z M 83.648438 82.683594 "/>
<path style=" stroke:none;fill-rule:nonzero;fill:rgb(0%,0%,0%);fill-opacity:1;" d="M 36.5 82.683594 C 36.648438 82.734375 36.941406 82.734375 37.113281 82.683594 C 37.261719 82.609375 37.140625 82.5625 36.796875 82.5625 C 36.453125 82.5625 36.328125 82.609375 36.5 82.683594 Z M 36.5 82.683594 "/>
<path style=" stroke:none;fill-rule:nonzero;fill:rgb(0%,0%,0%);fill-opacity:1;" d="M 95.128906 83.175781 C 95.425781 83.222656 95.867188 83.222656 96.113281 83.175781 C 96.332031 83.101562 96.085938 83.050781 95.546875 83.078125 C 95.007812 83.078125 94.8125 83.125 95.128906 83.175781 Z M 95.128906 83.175781 "/>
<path style=" stroke:none;fill-rule:nonzero;fill:rgb(0%,0%,0%);fill-opacity:1;" d="M 94.640625 83.667969 C 94.785156 83.714844 95.082031 83.714844 95.253906 83.667969 C 95.398438 83.59375 95.277344 83.542969 94.933594 83.542969 C 94.589844 83.542969 94.46875 83.59375 94.640625 83.667969 Z M 94.640625 83.667969 "/>
<path style=" stroke:none;fill-rule:nonzero;fill:rgb(0%,0%,0%);fill-opacity:1;" d="M 39.078125 83.910156 C 39.296875 83.960938 39.640625 83.960938 39.8125 83.910156 C 39.960938 83.839844 39.789062 83.789062 39.371094 83.789062 C 38.980469 83.789062 38.832031 83.839844 39.078125 83.910156 Z M 39.078125 83.910156 "/>
<path style=" stroke:none;fill-rule:nonzero;fill:rgb(0%,0%,0%);fill-opacity:1;" d="M 37.972656 84.15625 C 38.144531 84.230469 38.367188 84.207031 38.441406 84.132812 C 38.539062 84.058594 38.390625 83.984375 38.121094 84.011719 C 37.851562 84.011719 37.777344 84.082031 37.972656 84.15625 Z M 37.972656 84.15625 "/>
<path style=" stroke:none;fill-rule:nonzero;fill:rgb(0%,0%,0%);fill-opacity:1;" d="M 55.390625 85.140625 C 55.683594 85.1875 56.175781 85.1875 56.496094 85.140625 C 56.789062 85.089844 56.542969 85.042969 55.929688 85.042969 C 55.316406 85.042969 55.070312 85.089844 55.390625 85.140625 Z M 55.390625 85.140625 "/>
<path style=" stroke:none;fill-rule:nonzero;fill:rgb(0%,0%,0%);fill-opacity:1;" d="M 58.335938 85.386719 C 58.480469 85.433594 58.777344 85.433594 58.949219 85.386719 C 59.09375 85.3125 58.972656 85.261719 58.628906 85.261719 C 58.285156 85.261719 58.164062 85.3125 58.335938 85.386719 Z M 58.335938 85.386719 "/>
<path style=" stroke:none;fill-rule:nonzero;fill:rgb(0%,0%,0%);fill-opacity:1;" d="M 45.210938 85.628906 C 45.578125 85.679688 46.167969 85.679688 46.558594 85.628906 C 46.925781 85.582031 46.609375 85.53125 45.871094 85.53125 C 45.136719 85.53125 44.816406 85.582031 45.210938 85.628906 Z M 45.210938 85.628906 "/>
<path style=" stroke:none;fill-rule:nonzero;fill:rgb(0%,0%,0%);fill-opacity:1;" d="M 60.222656 85.730469 C 60.761719 85.828125 61.695312 85.925781 62.308594 85.902344 L 63.410156 85.875 L 62.183594 85.703125 C 61.523438 85.582031 60.566406 85.507812 60.101562 85.507812 L 59.242188 85.507812 Z M 60.222656 85.730469 "/>
<path style=" stroke:none;fill-rule:nonzero;fill:rgb(0%,0%,0%);fill-opacity:1;" d="M 81.636719 85.628906 C 81.785156 85.679688 82.078125 85.679688 82.25 85.628906 C 82.398438 85.558594 82.277344 85.507812 81.933594 85.507812 C 81.589844 85.507812 81.464844 85.558594 81.636719 85.628906 Z M 81.636719 85.628906 "/>
<path style=" stroke:none;fill-rule:nonzero;fill:rgb(0%,0%,0%);fill-opacity:1;" d="M 89.980469 85.628906 C 90.125 85.679688 90.421875 85.679688 90.59375 85.628906 C 90.738281 85.558594 90.617188 85.507812 90.273438 85.507812 C 89.929688 85.507812 89.808594 85.558594 89.980469 85.628906 Z M 89.980469 85.628906 "/>
<path style=" stroke:none;fill-rule:nonzero;fill:rgb(0%,0%,0%);fill-opacity:1;" d="M 42.632812 85.875 C 42.929688 85.925781 43.371094 85.925781 43.617188 85.875 C 43.835938 85.804688 43.589844 85.753906 43.050781 85.777344 C 42.511719 85.777344 42.316406 85.828125 42.632812 85.875 Z M 42.632812 85.875 "/>
<path style=" stroke:none;fill-rule:nonzero;fill:rgb(0%,0%,0%);fill-opacity:1;" d="M 79.675781 85.875 C 79.96875 85.925781 80.460938 85.925781 80.78125 85.875 C 81.074219 85.828125 80.828125 85.777344 80.214844 85.777344 C 79.601562 85.777344 79.355469 85.828125 79.675781 85.875 Z M 79.675781 85.875 "/>
<path style=" stroke:none;fill-rule:nonzero;fill:rgb(0%,0%,0%);fill-opacity:1;" d="M 92.921875 85.875 C 93.070312 85.925781 93.363281 85.925781 93.535156 85.875 C 93.683594 85.804688 93.558594 85.753906 93.214844 85.753906 C 92.875 85.753906 92.75 85.804688 92.921875 85.875 Z M 92.921875 85.875 "/>
<path style=" stroke:none;fill-rule:nonzero;fill:rgb(0%,0%,0%);fill-opacity:1;" d="M 40.425781 86.121094 C 40.574219 86.171875 40.867188 86.171875 41.039062 86.121094 C 41.1875 86.046875 41.0625 86 40.722656 86 C 40.378906 86 40.253906 86.046875 40.425781 86.121094 Z M 40.425781 86.121094 "/>
<path style=" stroke:none;fill-rule:nonzero;fill:rgb(0%,0%,0%);fill-opacity:1;" d="M 63.851562 86.121094 C 64.074219 86.171875 64.417969 86.171875 64.589844 86.121094 C 64.738281 86.046875 64.566406 86 64.148438 86 C 63.753906 86 63.609375 86.046875 63.851562 86.121094 Z M 63.851562 86.121094 "/>
<path style=" stroke:none;fill-rule:nonzero;fill:rgb(0%,0%,0%);fill-opacity:1;" d="M 78.082031 86.121094 C 78.300781 86.171875 78.644531 86.171875 78.816406 86.121094 C 78.964844 86.046875 78.792969 86 78.375 86 C 77.984375 86 77.835938 86.046875 78.082031 86.121094 Z M 78.082031 86.121094 "/>
<path style=" stroke:none;fill-rule:nonzero;fill:rgb(0%,0%,0%);fill-opacity:1;" d="M 94.886719 86.121094 C 95.054688 86.195312 95.277344 86.171875 95.351562 86.097656 C 95.449219 86.023438 95.300781 85.949219 95.03125 85.976562 C 94.761719 85.976562 94.6875 86.046875 94.886719 86.121094 Z M 94.886719 86.121094 "/>
<path style=" stroke:none;fill-rule:nonzero;fill:rgb(0%,0%,0%);fill-opacity:1;" d="M 38.710938 86.367188 C 38.882812 86.441406 39.101562 86.417969 39.175781 86.34375 C 39.273438 86.269531 39.125 86.195312 38.855469 86.21875 C 38.585938 86.21875 38.511719 86.292969 38.710938 86.367188 Z M 38.710938 86.367188 "/>
<path style=" stroke:none;fill-rule:nonzero;fill:rgb(0%,0%,0%);fill-opacity:1;" d="M 36.011719 86.859375 C 36.183594 86.933594 36.402344 86.90625 36.476562 86.835938 C 36.574219 86.761719 36.429688 86.6875 36.160156 86.710938 C 35.886719 86.710938 35.816406 86.785156 36.011719 86.859375 Z M 36.011719 86.859375 "/>
<path style=" stroke:none;fill-rule:nonzero;fill:rgb(0%,0%,0%);fill-opacity:1;" d="M 84.140625 86.933594 C 81.34375 87.152344 79.160156 87.449219 79.308594 87.570312 C 79.355469 87.621094 81.097656 87.546875 83.160156 87.398438 C 86.742188 87.152344 93.289062 87.398438 94.886719 87.816406 C 95.546875 88.011719 95.472656 88.554688 94.785156 88.480469 C 92.261719 88.183594 84.066406 87.9375 83.28125 88.109375 C 82.546875 88.28125 83.234375 88.355469 86.152344 88.355469 C 90.933594 88.382812 95.5 88.921875 95.03125 89.386719 C 94.886719 89.535156 93.902344 89.511719 92.503906 89.363281 C 90.886719 89.191406 90.125 89.191406 89.953125 89.363281 C 89.757812 89.558594 90.003906 89.632812 90.8125 89.632812 C 91.425781 89.632812 92.601562 89.707031 93.460938 89.804688 L 94.984375 89.953125 L 94.835938 90.960938 C 94.566406 92.605469 94.910156 91.820312 95.277344 89.855469 C 95.5 88.847656 95.71875 87.765625 95.792969 87.421875 C 95.914062 86.957031 95.890625 86.90625 95.695312 87.179688 C 95.523438 87.472656 95.179688 87.523438 94.394531 87.449219 L 93.339844 87.324219 L 94.320312 87.152344 C 94.910156 87.054688 94.613281 87.03125 93.535156 87.078125 C 92.480469 87.152344 91.71875 87.105469 91.621094 86.933594 C 91.449219 86.664062 87.820312 86.664062 84.140625 86.933594 Z M 84.140625 86.933594 "/>
<path style=" stroke:none;fill-rule:nonzero;fill:rgb(0%,0%,0%);fill-opacity:1;" d="M 40.792969 87.105469 C 41.164062 87.152344 41.703125 87.152344 42.019531 87.105469 C 42.316406 87.054688 42.019531 87.007812 41.335938 87.007812 C 40.671875 87.007812 40.402344 87.054688 40.792969 87.105469 Z M 40.792969 87.105469 "/>
<path style=" stroke:none;fill-rule:nonzero;fill:rgb(0%,0%,0%);fill-opacity:1;" d="M 37.238281 87.351562 C 37.679688 87.398438 38.339844 87.398438 38.710938 87.351562 C 39.078125 87.300781 38.710938 87.25 37.898438 87.25 C 37.089844 87.25 36.796875 87.300781 37.238281 87.351562 Z M 37.238281 87.351562 "/>
<path style=" stroke:none;fill-rule:nonzero;fill:rgb(0%,0%,0%);fill-opacity:1;" d="M 65.203125 88.578125 C 65.351562 88.625 65.644531 88.625 65.816406 88.578125 C 65.964844 88.503906 65.839844 88.453125 65.496094 88.453125 C 65.152344 88.453125 65.03125 88.503906 65.203125 88.578125 Z M 65.203125 88.578125 "/>
<path style=" stroke:none;fill-rule:nonzero;fill:rgb(0%,0%,0%);fill-opacity:1;" d="M 98.464844 89.804688 C 97.78125 90.46875 97.410156 90.835938 97.632812 90.664062 C 97.851562 90.519531 98.171875 90.371094 98.34375 90.371094 C 98.515625 90.371094 98.589844 90.273438 98.492188 90.148438 C 98.34375 89.878906 99.25 89.535156 99.570312 89.757812 C 99.691406 89.832031 99.863281 89.78125 99.960938 89.632812 C 100.035156 89.511719 99.988281 89.386719 99.839844 89.386719 C 99.667969 89.386719 99.59375 89.214844 99.691406 89.019531 C 99.890625 88.480469 99.816406 88.527344 98.464844 89.804688 Z M 98.464844 89.804688 "/>
<path style=" stroke:none;fill-rule:nonzero;fill:rgb(0%,0%,0%);fill-opacity:1;" d="M 42.4375 89.535156 C 40.207031 89.730469 37.949219 89.976562 37.410156 90.125 C 36.453125 90.347656 36.476562 90.347656 37.777344 90.246094 C 38.511719 90.199219 41.136719 90.027344 43.617188 89.855469 C 46.070312 89.683594 48.082031 89.460938 48.082031 89.339844 C 48.082031 89.09375 47.515625 89.117188 42.4375 89.535156 Z M 42.4375 89.535156 "/>
<path style=" stroke:none;fill-rule:nonzero;fill:rgb(0%,0%,0%);fill-opacity:1;" d="M 94.46875 92.480469 C 94.46875 92.753906 94.542969 92.824219 94.613281 92.628906 C 94.6875 92.457031 94.664062 92.238281 94.589844 92.164062 C 94.515625 92.066406 94.441406 92.210938 94.46875 92.480469 Z M 94.46875 92.480469 "/>
<path style=" stroke:none;fill-rule:nonzero;fill:rgb(0%,0%,0%);fill-opacity:1;" d="M 94.222656 94.300781 C 94.222656 95.109375 94.246094 95.132812 94.46875 94.570312 C 94.613281 94.175781 94.613281 93.882812 94.441406 93.710938 C 94.273438 93.539062 94.199219 93.734375 94.222656 94.300781 Z M 94.222656 94.300781 "/>
<path style=" stroke:none;fill-rule:nonzero;fill:rgb(0%,0%,0%);fill-opacity:1;" d="M 92.726562 95.847656 C 92.726562 96.019531 92.972656 96.410156 93.289062 96.679688 C 93.902344 97.246094 94.933594 97.640625 94.933594 97.296875 C 94.933594 97.023438 94 96.164062 93.289062 95.796875 C 92.847656 95.578125 92.726562 95.578125 92.726562 95.847656 Z M 92.726562 95.847656 "/>
<path style=" stroke:none;fill-rule:nonzero;fill:rgb(0%,0%,0%);fill-opacity:1;" d="M 92.359375 99.234375 C 92.261719 99.382812 92.234375 99.53125 92.308594 99.605469 C 92.359375 99.675781 92.480469 99.554688 92.554688 99.332031 C 92.726562 98.917969 92.578125 98.84375 92.359375 99.234375 Z M 92.359375 99.234375 "/>
<path style=" stroke:none;fill-rule:nonzero;fill:rgb(0%,0%,0%);fill-opacity:1;" d="M 47.246094 99.703125 C 47.539062 100.019531 48.203125 100.265625 48.988281 100.363281 C 50.117188 100.488281 50.261719 100.5625 50.460938 101.25 C 50.65625 101.960938 50.804688 102.058594 52.496094 102.429688 C 53.5 102.671875 55.832031 103.042969 57.648438 103.261719 C 59.460938 103.460938 61.15625 103.679688 61.398438 103.730469 C 61.621094 103.777344 61.816406 103.753906 61.816406 103.65625 C 61.816406 103.558594 60.714844 103.359375 59.339844 103.214844 C 57.992188 103.066406 56.8125 102.871094 56.714844 102.796875 C 56.640625 102.699219 56.960938 102.230469 57.425781 101.714844 L 58.261719 100.808594 L 57.402344 101.59375 C 56.910156 102.035156 56.445312 102.402344 56.347656 102.402344 C 56.273438 102.402344 56.003906 102.058594 55.808594 101.640625 C 55.585938 101.226562 55.339844 100.953125 55.269531 101.003906 C 55.195312 101.078125 55.390625 101.496094 55.683594 101.914062 C 55.980469 102.328125 56.199219 102.722656 56.152344 102.773438 C 55.980469 102.917969 52.152344 102.132812 51.832031 101.863281 C 51.660156 101.742188 51.441406 101.691406 51.292969 101.765625 C 51.171875 101.863281 50.949219 101.542969 50.777344 101.078125 C 50.535156 100.316406 50.410156 100.242188 49.257812 100.121094 C 48.570312 100.019531 47.835938 99.800781 47.589844 99.578125 C 46.976562 99.015625 46.65625 99.136719 47.246094 99.703125 Z M 47.246094 99.703125 "/>
<path style=" stroke:none;fill-rule:nonzero;fill:rgb(0%,0%,0%);fill-opacity:1;" d="M 56.542969 99.457031 C 56.347656 99.777344 56.664062 99.777344 57.15625 99.457031 C 57.476562 99.261719 57.476562 99.210938 57.109375 99.210938 C 56.886719 99.210938 56.617188 99.308594 56.542969 99.457031 Z M 56.542969 99.457031 "/>
<path style=" stroke:none;fill-rule:nonzero;fill:rgb(0%,0%,0%);fill-opacity:1;" d="M 59.5625 99.382812 C 59.730469 99.457031 59.953125 99.433594 60.027344 99.359375 C 60.125 99.285156 59.976562 99.210938 59.707031 99.234375 C 59.4375 99.234375 59.363281 99.308594 59.5625 99.382812 Z M 59.5625 99.382812 "/>
<path style=" stroke:none;fill-rule:nonzero;fill:rgb(0%,0%,0%);fill-opacity:1;" d="M 61.03125 99.382812 C 61.179688 99.433594 61.472656 99.433594 61.644531 99.382812 C 61.792969 99.308594 61.671875 99.261719 61.328125 99.261719 C 60.984375 99.261719 60.859375 99.308594 61.03125 99.382812 Z M 61.03125 99.382812 "/>
<path style=" stroke:none;fill-rule:nonzero;fill:rgb(0%,0%,0%);fill-opacity:1;" d="M 62.996094 99.382812 C 63.4375 99.433594 64.097656 99.433594 64.464844 99.382812 C 64.835938 99.332031 64.464844 99.285156 63.65625 99.285156 C 62.847656 99.285156 62.554688 99.332031 62.996094 99.382812 Z M 62.996094 99.382812 "/>
<path style=" stroke:none;fill-rule:nonzero;fill:rgb(0%,0%,0%);fill-opacity:1;" d="M 65.449219 99.382812 C 65.59375 99.433594 65.890625 99.433594 66.0625 99.382812 C 66.207031 99.308594 66.085938 99.261719 65.742188 99.261719 C 65.398438 99.261719 65.277344 99.308594 65.449219 99.382812 Z M 65.449219 99.382812 "/>
<path style=" stroke:none;fill-rule:nonzero;fill:rgb(0%,0%,0%);fill-opacity:1;" d="M 66.527344 99.332031 C 66.601562 99.40625 69.691406 99.457031 73.445312 99.457031 C 77.171875 99.457031 80.214844 99.554688 80.214844 99.652344 C 80.214844 99.75 80.066406 99.996094 79.921875 100.191406 C 79.75 100.390625 79.871094 100.316406 80.214844 100.019531 C 80.558594 99.726562 81.097656 99.457031 81.441406 99.382812 C 81.785156 99.332031 78.523438 99.261719 74.230469 99.234375 C 69.914062 99.234375 66.453125 99.261719 66.527344 99.332031 Z M 66.527344 99.332031 "/>
<path style=" stroke:none;fill-rule:nonzero;fill:rgb(0%,0%,0%);fill-opacity:1;" d="M 54.949219 100.191406 C 54.261719 100.5625 54.210938 100.636719 54.65625 100.609375 C 54.949219 100.585938 55.195312 100.511719 55.195312 100.414062 C 55.195312 100.339844 55.4375 100.144531 55.757812 99.996094 C 56.050781 99.847656 56.199219 99.726562 56.050781 99.726562 C 55.929688 99.726562 55.414062 99.921875 54.949219 100.191406 Z M 54.949219 100.191406 "/>
<path style=" stroke:none;fill-rule:nonzero;fill:rgb(0%,0%,0%);fill-opacity:1;" d="M 83.503906 101.003906 C 84.117188 101.8125 84.632812 102.527344 84.632812 102.648438 C 84.632812 102.871094 83.527344 103.632812 83.207031 103.632812 C 83.109375 103.632812 82.546875 102.820312 81.980469 101.839844 C 81.417969 100.878906 80.953125 100.191406 80.953125 100.339844 C 80.953125 100.535156 81.613281 101.742188 82.742188 103.558594 C 82.890625 103.804688 82.324219 103.851562 80.339844 103.804688 C 78.914062 103.777344 77.761719 103.703125 77.761719 103.632812 C 77.761719 103.558594 77.933594 103.214844 78.15625 102.894531 L 78.546875 102.28125 L 78.058594 102.820312 C 77.785156 103.140625 77.46875 103.386719 77.371094 103.386719 C 77.246094 103.386719 76.558594 102.796875 75.800781 102.085938 C 75.0625 101.398438 74.792969 101.175781 75.1875 101.640625 C 75.605469 102.109375 76.191406 102.746094 76.535156 103.042969 C 76.878906 103.335938 77.101562 103.632812 77.027344 103.703125 C 76.953125 103.777344 75.039062 103.875 72.734375 103.925781 C 67.703125 104.074219 63.289062 103.804688 63.019531 103.335938 C 62.871094 103.117188 62.796875 103.117188 62.796875 103.3125 C 62.796875 103.460938 62.601562 103.632812 62.382812 103.679688 C 60.394531 104.121094 81.808594 104.390625 84.972656 103.976562 C 86.054688 103.828125 87.304688 103.066406 88.039062 102.109375 L 88.554688 101.46875 L 88.039062 101.347656 C 87.769531 101.273438 87.476562 100.980469 87.402344 100.683594 C 87.28125 100.191406 87.183594 100.265625 86.199219 101.347656 L 85.144531 102.527344 L 83.746094 101.054688 L 82.375 99.578125 Z M 84.753906 103.386719 C 84.828125 103.507812 84.730469 103.632812 84.507812 103.632812 C 84.289062 103.632812 84.1875 103.507812 84.261719 103.386719 C 84.335938 103.238281 84.460938 103.140625 84.507812 103.140625 C 84.558594 103.140625 84.679688 103.238281 84.753906 103.386719 Z M 84.753906 103.386719 "/>
<path style=" stroke:none;fill-rule:nonzero;fill:rgb(0%,0%,0%);fill-opacity:1;" d="M 58.605469 100.363281 C 58.285156 100.757812 58.308594 100.78125 58.703125 100.464844 C 59.09375 100.144531 59.21875 99.949219 59.019531 99.949219 C 58.972656 99.949219 58.777344 100.144531 58.605469 100.363281 Z M 58.605469 100.363281 "/>
<path style=" stroke:none;fill-rule:nonzero;fill:rgb(0%,0%,0%);fill-opacity:1;" d="M 71.972656 100.734375 C 70.894531 101.9375 70.304688 102.648438 70.453125 102.648438 C 70.5 102.648438 71.089844 102.035156 71.726562 101.296875 C 72.980469 99.824219 73.152344 99.457031 71.972656 100.734375 Z M 71.972656 100.734375 "/>
<path style=" stroke:none;fill-rule:nonzero;fill:rgb(0%,0%,0%);fill-opacity:1;" d="M 91.988281 100.191406 C 91.988281 100.316406 92.113281 100.4375 92.261719 100.4375 C 92.382812 100.4375 92.433594 100.316406 92.359375 100.191406 C 92.285156 100.046875 92.160156 99.949219 92.089844 99.949219 C 92.039062 99.949219 91.988281 100.046875 91.988281 100.191406 Z M 91.988281 100.191406 "/>
<path style=" stroke:none;fill-rule:nonzero;fill:rgb(0%,0%,0%);fill-opacity:1;" d="M 67.089844 101.347656 C 67.460938 102.058594 68 102.84375 68.269531 103.066406 C 68.539062 103.3125 68.292969 102.796875 67.730469 101.9375 C 66.429688 99.921875 66.207031 99.726562 67.089844 101.347656 Z M 67.089844 101.347656 "/>
<path style=" stroke:none;fill-rule:nonzero;fill:rgb(0%,0%,0%);fill-opacity:1;" d="M 52.988281 101.054688 C 52.644531 101.25 52.496094 101.398438 52.617188 101.398438 C 52.765625 101.398438 53.132812 101.25 53.476562 101.054688 C 53.820312 100.855469 53.992188 100.707031 53.84375 100.707031 C 53.722656 100.707031 53.328125 100.855469 52.988281 101.054688 Z M 52.988281 101.054688 "/>
<path style=" stroke:none;fill-rule:nonzero;fill:rgb(0%,0%,0%);fill-opacity:1;" d="M 61.007812 101.445312 C 61.253906 101.863281 61.671875 102.378906 61.914062 102.601562 C 62.183594 102.820312 62.039062 102.5 61.597656 101.839844 C 60.714844 100.535156 60.320312 100.265625 61.007812 101.445312 Z M 61.007812 101.445312 "/>
<path style=" stroke:none;fill-rule:nonzero;fill:rgb(0%,0%,0%);fill-opacity:1;" d="M 64.050781 101.9375 C 63.609375 102.453125 63.339844 102.894531 63.4375 102.871094 C 63.558594 102.871094 64.023438 102.429688 64.492188 101.886719 C 64.933594 101.371094 65.203125 100.929688 65.105469 100.953125 C 64.980469 100.953125 64.515625 101.398438 64.050781 101.9375 Z M 64.050781 101.9375 "/>
<path style=" stroke:none;fill-rule:nonzero;fill:rgb(0%,0%,0%);fill-opacity:1;" d="M 79.0625 101.226562 C 78.695312 101.714844 78.449219 102.15625 78.570312 102.15625 C 78.644531 102.15625 78.867188 101.886719 79.085938 101.542969 C 79.503906 100.90625 79.480469 100.683594 79.0625 101.226562 Z M 79.0625 101.226562 "/>
<path style=" stroke:none;fill-rule:nonzero;fill:rgb(0%,0%,0%);fill-opacity:1;" d="M 41.972656 101.8125 C 41.972656 102.085938 42.046875 102.15625 42.121094 101.960938 C 42.191406 101.789062 42.167969 101.570312 42.09375 101.496094 C 42.019531 101.398438 41.949219 101.542969 41.972656 101.8125 Z M 41.972656 101.8125 "/>
<path style=" stroke:none;fill-rule:nonzero;fill:rgb(0%,0%,0%);fill-opacity:1;" d="M 0.441406 120.992188 C -0.390625 121.214844 0 121.507812 0.957031 121.386719 C 1.546875 121.3125 2.453125 121.433594 3.289062 121.679688 C 5.101562 122.269531 5.324219 122 3.558594 121.335938 C 2.257812 120.847656 1.375 120.746094 0.441406 120.992188 Z M 0.441406 120.992188 "/>
</g>
</svg>
